<svg width="65" height="29"  viewBox="0 0 65 29" fill="none" xmlns="http://www.w3.org/2000/svg">
<path fill-rule="evenodd" clip-rule="evenodd" d="M15.6976 1.32664C15.8607 1.00255 16.194 0.797852 16.5585 0.797852H41.9546C42.3034 0.797852 42.6248 0.985372 42.7949 1.28803C44.3481 4.0514 45.9011 6.81466 47.4542 9.57638L60.0719 9.51466C60.1243 9.5144 60.1766 9.51839 60.2283 9.52659C61.3197 9.69961 62.3928 10.0517 63.2401 10.7804C64.1115 11.5299 64.6447 12.5916 64.8002 13.9816C64.8038 14.0139 64.8057 14.0464 64.806 14.0789C64.8169 15.3158 64.8011 16.5514 64.7853 17.7752L64.7853 17.78C64.7695 19.0088 64.7539 20.2259 64.7646 21.4412C64.7668 21.6964 64.6664 21.942 64.4856 22.1233C64.3049 22.3046 64.0588 22.4065 63.802 22.4065H60.7255C60.291 22.4065 59.9103 22.1171 59.7965 21.7002C59.1988 19.5105 57.7394 17.5312 55.6528 17.1773C54.7631 17.1868 53.8945 17.1803 53.0359 17.1738L53.0314 17.1737C52.1617 17.1672 51.3022 17.1607 50.4246 17.1703C49.8074 17.2576 49.2007 17.4413 48.6622 17.8355C48.1301 18.2251 47.5928 18.8727 47.2004 20.0083C47.1414 20.5143 47.1277 21.0244 47.1135 21.5839L47.113 21.6042C47.0989 22.1622 47.0834 22.7712 47.007 23.3942C46.9865 24.0547 46.776 24.6877 46.2544 25.1933C45.7514 25.6808 45.057 25.9523 44.2748 26.1134C44.2039 26.128 44.1315 26.1347 44.0591 26.1331C40.5083 26.0583 36.998 26.0768 33.473 26.0954L33.4538 26.0955C29.9264 26.1141 26.3843 26.1325 22.7972 26.0561C22.2788 26.045 21.8624 25.6278 21.8553 25.1123C21.8159 22.2288 21.0708 20.2623 19.9691 19.0211C18.8811 17.7953 17.3463 17.1646 15.4723 17.1352C13.1872 17.1314 11.6888 17.7599 10.7017 18.7702C9.69427 19.8014 9.08717 21.3647 8.87619 23.4825C8.82607 23.9857 8.39091 24.3632 7.88268 24.3445C6.73875 24.3024 5.60741 24.3106 4.45151 24.3192L4.44153 24.3193C3.29549 24.3277 2.12503 24.3364 0.934842 24.2926C0.414262 24.2734 0.00346805 23.846 0.00787953 23.3282C0.0186316 22.066 0.0128159 20.7509 0.00695301 19.428L0.00693909 19.4249C0.00109155 18.1055 -0.00479002 16.7784 0.00607677 15.5019C0.00696848 15.3971 0.0251554 15.2932 0.0599117 15.1943C0.702833 13.365 1.58309 12.1444 2.65364 11.325C3.71331 10.5139 4.87846 10.1598 5.95959 9.92542C6.02318 9.91164 6.08801 9.9043 6.15309 9.90352C7.90761 9.88257 9.66061 9.86306 11.4131 9.8437C12.8412 7.00416 14.2694 4.16461 15.6976 1.32664ZM17.1533 2.71177C15.7277 5.54462 14.3022 8.379 12.8766 11.2135L12.8723 11.2221C12.7109 11.5429 12.3827 11.747 12.022 11.751C10.1067 11.7722 8.19198 11.7933 6.27559 11.8161C5.33867 12.0254 4.53109 12.3035 3.82812 12.8415C3.13534 13.3718 2.46777 14.2147 1.92992 15.6793C1.92094 16.893 1.92651 18.1529 1.93213 19.4196L1.93214 19.4232C1.93657 20.4211 1.94101 21.4231 1.9382 22.4042C2.76775 22.4176 3.59597 22.4115 4.43721 22.4053L4.44719 22.4052C5.30948 22.3989 6.18559 22.3924 7.07353 22.4082C7.38541 20.4296 8.0772 18.7096 9.32068 17.4368C10.7658 15.9575 12.8242 15.2156 15.4828 15.2213C15.4843 15.2213 15.4858 15.2213 15.4873 15.2213C15.49 15.2214 15.4926 15.2214 15.4952 15.2214C17.8124 15.2561 19.9025 16.0533 21.4127 17.7548C22.7616 19.2746 23.5661 21.4234 23.7444 24.16C26.9934 24.2153 30.2123 24.1986 33.4436 24.1816L33.4748 24.1814C36.9545 24.1631 40.4487 24.1447 43.9863 24.2173C44.5339 24.0932 44.7911 23.9385 44.9104 23.8229C45.0035 23.7327 45.079 23.6053 45.0833 23.3097C45.0839 23.274 45.0864 23.2385 45.0909 23.2031C45.1595 22.6668 45.1739 22.129 45.189 21.5356L45.1895 21.5153C45.204 20.9423 45.2199 20.3156 45.3018 19.6752C45.3096 19.6143 45.3232 19.5543 45.3425 19.4961C45.8435 17.9858 46.6082 16.9624 47.5206 16.2944C48.4241 15.633 49.3975 15.375 50.2265 15.2655C50.2648 15.2604 50.3033 15.2577 50.3419 15.2572C51.2605 15.2464 52.1564 15.2531 53.0416 15.2598L53.046 15.2599C53.9355 15.2666 54.8143 15.2732 55.7127 15.2626C55.7647 15.262 55.8167 15.2656 55.8682 15.2733C58.8046 15.715 60.61 18.1565 61.4337 20.4926H62.8359C62.8368 19.5778 62.8485 18.6653 62.8602 17.7596L62.8602 17.7556C62.8758 16.5438 62.8912 15.344 62.8813 14.1464C62.7645 13.1798 62.4186 12.6046 61.9804 12.2278C61.5242 11.8354 60.8717 11.5755 60.0005 11.4289L46.8958 11.4931C46.5455 11.4948 46.2219 11.3071 46.0509 11.0031C44.4972 8.24037 42.9435 5.47606 41.3898 2.71177H17.1533Z" fill="white"/>
<path fill-rule="evenodd" clip-rule="evenodd" d="M18.2717 4.7965C18.424 4.44584 18.7714 4.21875 19.1555 4.21875H25.9754C26.507 4.21875 26.938 4.64719 26.938 5.17571V10.9236C26.938 11.1786 26.8357 11.423 26.6537 11.6026C26.4717 11.7823 26.2251 11.8823 25.9687 11.8805L16.6815 11.816C16.3587 11.8138 16.0585 11.6508 15.8821 11.3821C15.7056 11.1133 15.6765 10.7745 15.8044 10.4799L18.2717 4.7965ZM19.7885 6.13266L18.1477 9.91225L25.0128 9.95993V6.13266H19.7885Z" fill="white"/>
<path fill-rule="evenodd" clip-rule="evenodd" d="M29.4585 4.5569C29.6406 4.37678 29.8875 4.27649 30.1444 4.27835L39.5722 4.34643C39.9328 4.34904 40.2617 4.5518 40.4243 4.87178L43.2558 10.4423C43.4064 10.7387 43.3917 11.0916 43.2169 11.3746C43.0421 11.6576 42.7322 11.8303 42.3982 11.8308L30.1516 11.8505C29.6202 11.8514 29.1886 11.424 29.1874 10.8957L29.1748 5.2374C29.1742 4.98203 29.2764 4.73702 29.4585 4.5569ZM31.1021 6.19923L31.1105 9.93507L40.833 9.91943L38.9709 6.25605L31.1021 6.19923Z" fill="white"/>
<path fill-rule="evenodd" clip-rule="evenodd" d="M25.1484 21.5168C25.1499 20.9883 25.5821 20.561 26.1137 20.5625L42.2533 20.6073C42.7849 20.6088 43.2147 21.0384 43.2132 21.5669C43.2117 22.0954 42.7795 22.5227 42.2479 22.5212L26.1083 22.4764C25.5767 22.4749 25.147 22.0453 25.1484 21.5168Z" fill="white"/>
<path fill-rule="evenodd" clip-rule="evenodd" d="M29.2148 14.3193C29.2148 13.7907 29.6458 13.3623 30.1774 13.3623H32.515C33.0466 13.3623 33.4776 13.7907 33.4776 14.3193C33.4776 14.8478 33.0466 15.2762 32.515 15.2762H30.1774C29.6458 15.2762 29.2148 14.8478 29.2148 14.3193Z" fill="white"/>
<path fill-rule="evenodd" clip-rule="evenodd" d="M1.09987 14.6984C1.11223 14.17 1.55309 13.7517 2.08458 13.7639L4.87633 13.8284C5.40781 13.8407 5.82865 14.279 5.8163 14.8074C5.80395 15.3357 5.36308 15.7541 4.8316 15.7418L2.03985 15.6773C1.50836 15.6651 1.08752 15.2268 1.09987 14.6984Z" fill="white"/>
<path fill-rule="evenodd" clip-rule="evenodd" d="M10.3525 23.4361C10.3525 20.8095 12.5047 18.6699 15.1468 18.6699C17.7889 18.6699 19.9411 20.8095 19.9411 23.4361C19.9411 26.0628 17.7889 28.2023 15.1468 28.2023C12.5047 28.2023 10.3525 26.0628 10.3525 23.4361ZM15.1468 20.5838C13.568 20.5838 12.2777 21.8665 12.2777 23.4361C12.2777 25.0057 13.568 26.2884 15.1468 26.2884C16.7257 26.2884 18.0159 25.0057 18.0159 23.4361C18.0159 21.8665 16.7257 20.5838 15.1468 20.5838Z" fill="white"/>
<path fill-rule="evenodd" clip-rule="evenodd" d="M48.7363 23.4329C48.7365 20.8064 50.8886 18.667 53.5306 18.667C56.1727 18.667 58.3249 20.8065 58.3249 23.4332C58.3249 26.0598 56.1727 28.1994 53.5306 28.1994C50.8874 28.1994 48.7345 26.0605 48.7363 23.4332M53.5306 20.5809C51.9517 20.5809 50.6615 21.8636 50.6615 23.4332L50.6615 23.434C50.6602 25.0025 51.9495 26.2855 53.5306 26.2855C55.1095 26.2855 56.3997 25.0028 56.3997 23.4332C56.3997 21.8636 55.1095 20.5809 53.5306 20.5809Z" fill="white"/>
<path fill-rule="evenodd" clip-rule="evenodd" d="M59.6699 14.1259C59.6699 13.5974 60.1009 13.1689 60.6325 13.1689H62.9701C63.5017 13.1689 63.9327 13.5974 63.9327 14.1259C63.9327 14.6544 63.5017 15.0829 62.9701 15.0829H60.6325C60.1009 15.0829 59.6699 14.6544 59.6699 14.1259Z" fill="white"/>
<path fill-rule="evenodd" clip-rule="evenodd" d="M18.2717 4.7965C18.424 4.44584 18.7714 4.21875 19.1555 4.21875H25.9754C26.507 4.21875 26.938 4.64719 26.938 5.17571V10.9236C26.938 11.1786 26.8357 11.423 26.6537 11.6026C26.4717 11.7823 26.2251 11.8823 25.9687 11.8805L16.6815 11.816C16.3587 11.8138 16.0585 11.6508 15.8821 11.3821C15.7056 11.1133 15.6765 10.7745 15.8044 10.4799L18.2717 4.7965ZM19.7885 6.13266L18.1477 9.91225L25.0128 9.95993V6.13266H19.7885Z" fill="white"/>
<path fill-rule="evenodd" clip-rule="evenodd" d="M29.4585 4.5569C29.6406 4.37678 29.8875 4.27649 30.1444 4.27835L39.5722 4.34643C39.9328 4.34904 40.2617 4.5518 40.4243 4.87178L43.2558 10.4423C43.4064 10.7387 43.3917 11.0916 43.2169 11.3746C43.0421 11.6576 42.7322 11.8303 42.3982 11.8308L30.1516 11.8505C29.6202 11.8514 29.1886 11.424 29.1874 10.8957L29.1748 5.2374C29.1742 4.98203 29.2764 4.73702 29.4585 4.5569ZM31.1021 6.19923L31.1105 9.93507L40.833 9.91943L38.9709 6.25605L31.1021 6.19923Z" fill="white"/>
<path fill-rule="evenodd" clip-rule="evenodd" d="M25.1484 21.5168C25.1499 20.9883 25.5821 20.561 26.1137 20.5625L42.2533 20.6073C42.7849 20.6088 43.2147 21.0384 43.2132 21.5669C43.2117 22.0954 42.7795 22.5227 42.2479 22.5212L26.1083 22.4764C25.5767 22.4749 25.147 22.0453 25.1484 21.5168Z" fill="white"/>
<path fill-rule="evenodd" clip-rule="evenodd" d="M29.2148 14.3193C29.2148 13.7907 29.6458 13.3623 30.1774 13.3623H32.515C33.0466 13.3623 33.4776 13.7907 33.4776 14.3193C33.4776 14.8478 33.0466 15.2762 32.515 15.2762H30.1774C29.6458 15.2762 29.2148 14.8478 29.2148 14.3193Z" fill="white"/>
<path fill-rule="evenodd" clip-rule="evenodd" d="M1.09987 14.6984C1.11223 14.17 1.55309 13.7517 2.08458 13.7639L4.87633 13.8284C5.40781 13.8407 5.82865 14.279 5.8163 14.8074C5.80395 15.3357 5.36308 15.7541 4.8316 15.7418L2.03985 15.6773C1.50836 15.6651 1.08752 15.2268 1.09987 14.6984Z" fill="white"/>
<path fill-rule="evenodd" clip-rule="evenodd" d="M10.3525 23.4361C10.3525 20.8095 12.5047 18.6699 15.1468 18.6699C17.7889 18.6699 19.9411 20.8095 19.9411 23.4361C19.9411 26.0628 17.7889 28.2023 15.1468 28.2023C12.5047 28.2023 10.3525 26.0628 10.3525 23.4361ZM15.1468 20.5838C13.568 20.5838 12.2777 21.8665 12.2777 23.4361C12.2777 25.0057 13.568 26.2884 15.1468 26.2884C16.7257 26.2884 18.0159 25.0057 18.0159 23.4361C18.0159 21.8665 16.7257 20.5838 15.1468 20.5838Z" fill="white"/>
<path fill-rule="evenodd" clip-rule="evenodd" d="M48.7363 23.4329C48.7365 20.8064 50.8886 18.667 53.5306 18.667C56.1727 18.667 58.3249 20.8065 58.3249 23.4332C58.3249 26.0598 56.1727 28.1994 53.5306 28.1994C50.8874 28.1994 48.7345 26.0605 48.7363 23.4332M53.5306 20.5809C51.9517 20.5809 50.6615 21.8636 50.6615 23.4332L50.6615 23.434C50.6602 25.0025 51.9495 26.2855 53.5306 26.2855C55.1095 26.2855 56.3997 25.0028 56.3997 23.4332C56.3997 21.8636 55.1095 20.5809 53.5306 20.5809Z" fill="white"/>
<path fill-rule="evenodd" clip-rule="evenodd" d="M59.6699 14.1259C59.6699 13.5974 60.1009 13.1689 60.6325 13.1689H62.9701C63.5017 13.1689 63.9327 13.5974 63.9327 14.1259C63.9327 14.6544 63.5017 15.0829 62.9701 15.0829H60.6325C60.1009 15.0829 59.6699 14.6544 59.6699 14.1259Z" fill="white"/>
</svg>

