<svg width="13" height="9" viewBox="0 0 13 9" fill="none" xmlns="http://www.w3.org/2000/svg">
<path d="M7.75089 7.75632C7.81159 7.69605 7.86282 7.62933 7.90737 7.56002L12.5583 2.90892C13.0118 2.45499 13.012 1.7193 12.558 1.26514C12.1043 0.811206 11.3684 0.811206 10.9143 1.26514L6.90888 5.27096L2.8824 1.24491C2.42889 0.790758 1.69278 0.790758 1.23862 1.24491C1.01198 1.47199 0.898545 1.76923 0.898545 2.06648C0.898545 2.36372 1.01198 2.66162 1.23905 2.88805L5.91038 7.56002C5.95494 7.62933 6.00595 7.69584 6.06686 7.75632C6.29932 7.98878 6.60453 8.10027 6.90888 8.09511C7.21344 8.10049 7.51908 7.98878 7.75089 7.75632Z" fill="white"/>
</svg>
