<svg width="47" height="46" viewBox="0 0 47 46" fill="none" xmlns="http://www.w3.org/2000/svg">
<circle cx="23.1899" cy="23" r="23" fill="#203F7E" style="width: 100%; height: auto;"/>
<path d="M21.6812 24.2754V21.8584H23.5718C24.3094 21.8584 24.9038 21.6615 25.355 21.2676C25.8133 20.8737 26.0425 20.3617 26.0425 19.7314C26.0425 19.1084 25.8169 18.6143 25.3657 18.249C24.9217 17.8766 24.3201 17.6904 23.561 17.6904C22.8091 17.6904 22.2004 17.8874 21.7349 18.2812C21.2694 18.6751 21.0151 19.2087 20.9722 19.8818H17.9751C18.0324 18.4137 18.5695 17.25 19.5864 16.3906C20.6034 15.5312 21.9569 15.1016 23.647 15.1016C25.2368 15.1016 26.5438 15.4954 27.5679 16.2832C28.5991 17.0638 29.1147 18.0628 29.1147 19.2803C29.1147 20.1755 28.8534 20.9453 28.3306 21.5898C27.8149 22.2344 27.1239 22.6462 26.2573 22.8252V23.0186C27.3244 23.1403 28.1659 23.5342 28.7817 24.2002C29.4048 24.859 29.7163 25.6969 29.7163 26.7139C29.7163 27.609 29.4549 28.4147 28.9321 29.1309C28.4165 29.8398 27.6932 30.3949 26.7622 30.7959C25.8312 31.1969 24.7856 31.3975 23.6255 31.3975C21.8996 31.3975 20.4959 30.957 19.4146 30.0762C18.3332 29.1953 17.7567 28.0244 17.6851 26.5635H20.7896C20.8397 27.2223 21.1226 27.7451 21.6382 28.1318C22.1538 28.5114 22.827 28.7012 23.6577 28.7012C24.467 28.7012 25.1258 28.4935 25.6343 28.0781C26.1499 27.6628 26.4077 27.1257 26.4077 26.4668C26.4077 25.7865 26.1571 25.2529 25.6558 24.8662C25.1545 24.4723 24.4705 24.2754 23.604 24.2754H21.6812Z" fill="white"/>
</svg>
