<svg width="83" height="28" viewBox="0 0 83 28" fill="none" xmlns="http://www.w3.org/2000/svg">
<path d="M3.36 0H79.352C81.2056 0 82.712 1.5064 82.712 3.36V24.64C82.712 26.4936 81.2056 28 79.352 28H3.36C1.5064 28 0 26.4936 0 24.64V3.36C0 1.5064 1.5064 0 3.36 0Z" fill="#203F7E"/>
<path d="M18.1036 13.3549C18.0868 11.3501 19.7444 10.3757 19.8172 10.3309C18.8764 8.96445 17.4204 8.77405 16.9108 8.75725C15.69 8.62845 14.5028 9.49085 13.8812 9.49085C13.2484 9.49085 12.2852 8.77405 11.2548 8.79085C9.92758 8.81325 8.67878 9.58045 8.00118 10.7789C6.59558 13.2149 7.64278 16.7989 8.99238 18.7701C9.66998 19.7333 10.454 20.8141 11.49 20.7749C12.498 20.7357 12.8788 20.1309 14.094 20.1309C15.3036 20.1309 15.6564 20.7749 16.7092 20.7525C17.7956 20.7357 18.4732 19.7837 19.1284 18.8093C19.9068 17.7061 20.2204 16.6141 20.2316 16.5581C20.2036 16.5469 18.126 15.7517 18.1036 13.3549Z" fill="white"/>
<path d="M16.1157 7.46427C16.6589 6.78667 17.0285 5.86267 16.9277 4.92188C16.1437 4.95547 15.1581 5.46508 14.5925 6.13147C14.0941 6.71947 13.6461 7.67708 13.7581 8.57868C14.6429 8.64587 15.5501 8.13067 16.1157 7.46427Z" fill="white"/>
<path d="M32.731 20.6462H31.3198L30.547 18.2158H27.859L27.1254 20.6462H25.7534L28.4134 12.375H30.0598L32.731 20.6462ZM30.3174 17.1966L29.6174 15.0406C29.5446 14.8166 29.4046 14.3014 29.203 13.4838H29.175C29.091 13.8366 28.9622 14.3574 28.783 15.0406L28.0942 17.1966H30.3174Z" fill="white"/>
<path d="M39.5693 17.5918C39.5693 18.6054 39.2949 19.4062 38.7405 19.9942C38.2477 20.5206 37.6317 20.7782 36.9037 20.7782C36.1141 20.7782 35.5485 20.4982 35.2013 19.9326V23.063H33.8741V16.6398C33.8741 16.0014 33.8573 15.3518 33.8237 14.6798H34.9885L35.0613 15.6262H35.0837C35.5261 14.915 36.1981 14.5566 37.0941 14.5566C37.7997 14.5566 38.3821 14.8366 38.8525 15.391C39.3341 15.951 39.5693 16.679 39.5693 17.5918ZM38.2197 17.6366C38.2197 17.0542 38.0909 16.5782 37.8277 16.203C37.5421 15.811 37.1557 15.615 36.6741 15.615C36.3493 15.615 36.0525 15.727 35.7837 15.9398C35.5205 16.1582 35.3413 16.4382 35.2629 16.791C35.2237 16.9534 35.2013 17.0878 35.2013 17.1942V18.191C35.2013 18.6222 35.3357 18.9918 35.5989 19.2886C35.8621 19.5854 36.2093 19.7366 36.6349 19.7366C37.1333 19.7366 37.5197 19.5406 37.7997 19.1598C38.0797 18.7734 38.2197 18.2694 38.2197 17.6366Z" fill="white"/>
<path d="M46.4219 17.5918C46.4219 18.6054 46.1475 19.4062 45.5931 19.9942C45.1003 20.5206 44.4843 20.7782 43.7563 20.7782C42.9667 20.7782 42.4011 20.4982 42.0539 19.9326V23.063H40.7267V16.6398C40.7267 16.0014 40.7099 15.3518 40.6763 14.6798H41.8411L41.9139 15.6262H41.9363C42.3787 14.915 43.0507 14.5566 43.9467 14.5566C44.6523 14.5566 45.2347 14.8366 45.7051 15.391C46.1867 15.951 46.4219 16.679 46.4219 17.5918ZM45.0723 17.6366C45.0723 17.0542 44.9435 16.5782 44.6803 16.203C44.3947 15.811 44.0083 15.615 43.5267 15.615C43.2019 15.615 42.9051 15.727 42.6363 15.9398C42.3731 16.1582 42.1995 16.4382 42.1155 16.791C42.0763 16.9534 42.0539 17.0878 42.0539 17.1942V18.191C42.0539 18.6222 42.1883 18.9918 42.4515 19.2886C42.7147 19.5854 43.0619 19.7366 43.4875 19.7366C43.9859 19.7366 44.3779 19.5406 44.6523 19.1598C44.9379 18.7734 45.0723 18.2694 45.0723 17.6366Z" fill="white"/>
<path d="M54.0928 18.3282C54.0928 19.0338 53.8463 19.605 53.3591 20.0474C52.8215 20.529 52.0712 20.7698 51.108 20.7698C50.2176 20.7698 49.5064 20.5962 48.9688 20.2546L49.2767 19.1514C49.8591 19.493 50.4976 19.6666 51.192 19.6666C51.6904 19.6666 52.0824 19.5546 52.3568 19.3306C52.6368 19.1066 52.7768 18.8042 52.7768 18.429C52.7768 18.093 52.6591 17.813 52.4351 17.5834C52.2055 17.3538 51.8248 17.141 51.2928 16.945C49.8311 16.4018 49.1088 15.6122 49.1088 14.5762C49.1088 13.8986 49.3664 13.3442 49.876 12.9074C50.3856 12.4762 51.0631 12.2578 51.9088 12.2578C52.6592 12.2578 53.2864 12.3866 53.7847 12.6498L53.4488 13.725C52.9784 13.473 52.452 13.3442 51.8584 13.3442C51.3936 13.3442 51.024 13.4618 50.7608 13.6858C50.5424 13.893 50.4304 14.1394 50.4304 14.4362C50.4304 14.761 50.5591 15.0354 50.8111 15.2426C51.0295 15.4386 51.4327 15.6514 52.0151 15.881C52.7263 16.1666 53.2471 16.5026 53.5831 16.889C53.9247 17.2754 54.0928 17.757 54.0928 18.3282Z" fill="white"/>
<path d="M58.4843 15.68H57.0227V18.5752C57.0227 19.3088 57.2803 19.6784 57.7955 19.6784C58.0307 19.6784 58.2267 19.656 58.3835 19.6168L58.4227 20.6248C58.1595 20.72 57.8179 20.7704 57.3923 20.7704C56.8659 20.7704 56.4627 20.608 56.1659 20.2888C55.8691 19.9696 55.7235 19.432 55.7235 18.6816V15.6744H54.8555V14.6832H55.7235V13.5912L57.0227 13.1992V14.6832H58.4843V15.68Z" fill="white"/>
<path d="M65.061 17.6184C65.061 18.5368 64.7978 19.2872 64.277 19.8752C63.7282 20.48 63.0002 20.7824 62.093 20.7824C61.2194 20.7824 60.5194 20.4912 59.9986 19.9144C59.4778 19.3376 59.2202 18.604 59.2202 17.7192C59.2202 16.7952 59.489 16.0392 60.021 15.4512C60.5586 14.8632 61.281 14.5664 62.1882 14.5664C63.0618 14.5664 63.7674 14.8576 64.2994 15.44C64.809 16 65.061 16.728 65.061 17.6184ZM63.689 17.6464C63.689 17.0976 63.5714 16.6328 63.3362 16.2408C63.0562 15.7648 62.6586 15.5296 62.1434 15.5296C61.6114 15.5296 61.2026 15.7648 60.9282 16.2408C60.6874 16.6328 60.5754 17.1088 60.5754 17.6744C60.5754 18.2232 60.693 18.6936 60.9282 19.08C61.2138 19.556 61.617 19.7912 62.1322 19.7912C62.6362 19.7912 63.0338 19.5504 63.325 19.0688C63.5658 18.6656 63.689 18.1952 63.689 17.6464Z" fill="white"/>
<path d="M69.3714 15.8446C69.2426 15.8222 69.1026 15.811 68.9514 15.811C68.4866 15.811 68.1226 15.9846 67.8706 16.3374C67.6522 16.6454 67.5402 17.043 67.5402 17.5134V20.6438H66.213V16.5558C66.213 15.867 66.2018 15.2398 66.1738 14.6798H67.3274L67.3778 15.8222H67.417C67.557 15.4302 67.7754 15.111 68.0778 14.8758C68.3746 14.663 68.6938 14.5566 69.0354 14.5566C69.1586 14.5566 69.2706 14.5678 69.3658 14.579L69.3714 15.8446Z" fill="white"/>
<path d="M75.2964 17.3822C75.2964 17.6174 75.2796 17.819 75.246 17.9814H71.27C71.2868 18.5694 71.4772 19.023 71.8468 19.331C72.1828 19.6054 72.614 19.7454 73.146 19.7454C73.734 19.7454 74.2716 19.6502 74.7532 19.4654L74.9604 20.3838C74.3948 20.6302 73.7284 20.7534 72.9612 20.7534C72.0372 20.7534 71.3092 20.479 70.7828 19.9358C70.2564 19.3926 69.9932 18.659 69.9932 17.7462C69.9932 16.8502 70.2396 16.0998 70.7324 15.5006C71.2476 14.8622 71.942 14.543 72.8156 14.543C73.6724 14.543 74.3276 14.8622 74.7644 15.5006C75.1172 16.0158 75.2964 16.6374 75.2964 17.3822ZM74.0308 17.0406C74.042 16.6486 73.9524 16.307 73.7732 16.0214C73.5436 15.6518 73.1908 15.467 72.7204 15.467C72.2892 15.467 71.9364 15.6462 71.6676 16.0046C71.4492 16.2902 71.3148 16.6374 71.2756 17.035L74.0308 17.0406Z" fill="white"/>
<path d="M29.6813 9.41716H28.9869L28.6061 8.22436H27.2845L26.9205 9.41716H26.2485L27.5533 5.35156H28.3597L29.6813 9.41716ZM28.4885 7.72036L28.1469 6.65636C28.1133 6.54996 28.0461 6.29236 27.9397 5.88916H27.9285C27.8837 6.06276 27.8277 6.31476 27.7325 6.65636L27.3965 7.72036H28.4885Z" fill="white"/>
<path d="M32.9525 6.48047L31.8437 9.41487H31.2109L30.1357 6.48047H30.8357L31.3341 8.03167C31.4181 8.28927 31.4909 8.53567 31.5469 8.77087H31.5637C31.6141 8.55807 31.6869 8.31167 31.7765 8.03167L32.2693 6.48047H32.9525Z" fill="white"/>
<path d="M35.3151 9.41253L35.2647 9.07653H35.2479C35.0463 9.34533 34.7607 9.47973 34.3911 9.47973C33.8647 9.47973 33.4951 9.11013 33.4951 8.61733C33.4951 7.89493 34.1223 7.51973 35.2087 7.51973V7.46373C35.2087 7.07733 35.0015 6.88693 34.5983 6.88693C34.3071 6.88693 34.0551 6.95973 33.8311 7.10533L33.6967 6.67973C33.9655 6.51173 34.3071 6.42773 34.7047 6.42773C35.4719 6.42773 35.8583 6.83093 35.8583 7.64293V8.72373C35.8583 9.02053 35.8695 9.25013 35.9031 9.42373L35.3151 9.41253ZM35.2255 7.95093C34.5031 7.95093 34.1391 8.12453 34.1391 8.54453C34.1391 8.85253 34.3239 9.00373 34.5871 9.00373C34.9175 9.00373 35.2255 8.75173 35.2255 8.40453V7.95093Z" fill="white"/>
<path d="M37.3073 5.99715C37.0889 5.99715 36.9209 5.82915 36.9209 5.60515C36.9209 5.38115 37.0945 5.21875 37.3185 5.21875C37.5425 5.21875 37.7217 5.38115 37.7161 5.60515C37.7161 5.84035 37.5481 5.99715 37.3073 5.99715ZM36.9937 6.47875H37.6433V9.40755H36.9937V6.47875Z" fill="white"/>
<path d="M38.8022 5.13477H39.4518V9.40757H38.8022V5.13477Z" fill="white"/>
<path d="M42.2209 9.41423L42.1705 9.07823H42.1537C41.9521 9.34703 41.6665 9.48143 41.2969 9.48143C40.7705 9.48143 40.4009 9.11183 40.4009 8.61903C40.4009 7.89663 41.0281 7.52143 42.1145 7.52143V7.46543C42.1145 7.07903 41.9073 6.88863 41.5041 6.88863C41.2129 6.88863 40.9609 6.96143 40.7369 7.10703L40.6025 6.67583C40.8713 6.50783 41.2129 6.42383 41.6105 6.42383C42.3777 6.42383 42.7641 6.82703 42.7641 7.63903V8.71983C42.7641 9.01663 42.7753 9.24623 42.8033 9.41983H42.2209V9.41423ZM42.1313 7.95263C41.4089 7.95263 41.0449 8.12623 41.0449 8.54623C41.0449 8.85423 41.2297 9.00543 41.4929 9.00543C41.8233 9.00543 42.1313 8.75343 42.1313 8.40623V7.95263Z" fill="white"/>
<path d="M45.4062 9.48037C44.9918 9.48037 44.6838 9.30677 44.4822 8.95957H44.471L44.4318 9.41317H43.8774C43.8942 9.17797 43.8998 8.91477 43.8998 8.62357V5.13477H44.555V6.90997H44.5662C44.7622 6.58517 45.0702 6.42277 45.5014 6.42277C46.207 6.42277 46.6998 7.02757 46.6998 7.90677C46.6998 8.81397 46.151 9.48037 45.4062 9.48037ZM45.2718 6.93237C44.8966 6.93237 44.555 7.25717 44.555 7.71077V8.22597C44.555 8.62917 44.863 8.95957 45.2606 8.95957C45.7478 8.95957 46.039 8.56197 46.039 7.92917C46.039 7.33557 45.7366 6.93237 45.2718 6.93237Z" fill="white"/>
<path d="M47.6636 5.13477H48.3132V9.40757H47.6636V5.13477Z" fill="white"/>
<path d="M51.8575 8.10136H49.9031C49.9143 8.65576 50.2839 8.96936 50.8271 8.96936C51.1183 8.96936 51.3815 8.91896 51.6167 8.82936L51.7175 9.28296C51.4431 9.40616 51.1183 9.46216 50.7375 9.46216C49.8191 9.46216 49.2759 8.88536 49.2759 7.98376C49.2759 7.08776 49.8303 6.41016 50.6647 6.41016C51.4095 6.41016 51.8855 6.96456 51.8855 7.80456C51.8855 7.92216 51.8799 8.02296 51.8575 8.10136ZM51.2639 7.63656C51.2639 7.18296 51.0343 6.86376 50.6199 6.86376C50.2447 6.86376 49.9535 7.18856 49.9087 7.63656H51.2639Z" fill="white"/>
<path d="M55.8062 9.48143C54.9494 9.48143 54.395 8.84303 54.395 7.97503C54.395 7.06783 54.9606 6.42383 55.8566 6.42383C56.7022 6.42383 57.2678 7.03423 57.2678 7.92463C57.2678 8.83743 56.6854 9.48143 55.8062 9.48143ZM55.8342 6.89983C55.3638 6.89983 55.0614 7.34223 55.0614 7.95263C55.0614 8.55743 55.3694 8.99423 55.8286 8.99423C56.2878 8.99423 56.5958 8.52383 56.5958 7.93583C56.5902 7.34223 56.2934 6.89983 55.8342 6.89983Z" fill="white"/>
<path d="M60.766 9.41202H60.1164V7.72642C60.1164 7.20562 59.9148 6.94802 59.5228 6.94802C59.1364 6.94802 58.8732 7.27842 58.8732 7.66482V9.40642H58.2236V7.31762C58.2236 7.06002 58.218 6.78002 58.2012 6.47762H58.7724L58.8004 6.93122H58.8172C58.9908 6.61762 59.3492 6.41602 59.7468 6.41602C60.3628 6.41602 60.766 6.88642 60.766 7.65362V9.41202Z" fill="white"/>
<path d="M65.0281 6.9708H64.3113V8.3932C64.3113 8.7572 64.4401 8.9364 64.6921 8.9364C64.8041 8.9364 64.9049 8.9252 64.9833 8.9084L65.0001 9.4012C64.8713 9.4516 64.7033 9.474 64.4961 9.474C63.9809 9.474 63.6785 9.1884 63.6785 8.4492V6.9708H63.2529V6.4836H63.6785V5.946L64.3169 5.75V6.478H65.0337V6.9708" fill="white"/>
<path d="M68.4779 9.41317H67.8283V7.73877C67.8283 7.21237 67.6267 6.94917 67.2347 6.94917C66.8987 6.94917 66.5851 7.17877 66.5851 7.64357V9.40757H65.9355V5.13477H66.5851V6.89317H66.5963C66.8035 6.57397 67.0947 6.41717 67.4755 6.41717C68.0971 6.41717 68.4779 6.89877 68.4779 7.66597V9.41317Z" fill="white"/>
<path d="M71.8052 8.10136H69.8508C69.862 8.65576 70.2316 8.96936 70.7748 8.96936C71.066 8.96936 71.3292 8.91896 71.5644 8.82936L71.6652 9.28296C71.3908 9.40616 71.066 9.46216 70.6852 9.46216C69.7668 9.46216 69.2236 8.88536 69.2236 7.98376C69.2236 7.08776 69.778 6.41016 70.6124 6.41016C71.3572 6.41016 71.8332 6.96456 71.8332 7.80456C71.8332 7.92216 71.8276 8.02296 71.8052 8.10136ZM71.2116 7.63656C71.2116 7.18296 70.982 6.86376 70.5676 6.86376C70.1924 6.86376 69.8956 7.18856 69.8564 7.63656H71.2116Z" fill="white"/>
</svg>
