<svg width="12" height="11" viewBox="0 0 12 11" fill="none" xmlns="http://www.w3.org/2000/svg">
<path d="M10.8306 4.43577L10.8308 4.43632C10.8338 4.44554 10.8338 4.45413 10.8315 4.46233C10.8292 4.4706 10.824 4.47993 10.8139 4.48857L10.8135 4.48891L8.48642 6.48508L8.25639 6.68239L8.3249 6.97761L9.01105 9.93443C9.01483 9.95078 9.01004 9.97113 8.98852 9.98639L8.98848 9.98642C8.96498 10.0031 8.93261 10.0043 8.90817 9.98995L8.907 9.98927L6.25232 8.43655L5.99993 8.28893L5.74751 8.43651L3.09185 9.98923L3.09163 9.98936C3.07877 9.99689 3.06598 10 3.0536 10C3.03867 10 3.02378 9.99559 3.01015 9.98596C2.99922 9.9782 2.99316 9.96929 2.99001 9.96109C2.98687 9.95293 2.98602 9.94407 2.98825 9.93432C2.98826 9.93428 2.98827 9.93424 2.98828 9.9342L3.67437 6.97761L3.74287 6.68242L3.51289 6.48511L1.18577 4.48855L1.18481 4.48773C1.16708 4.4726 1.16342 4.45306 1.16889 4.43659C1.17484 4.41869 1.19387 4.39857 1.22682 4.39551C1.22688 4.39551 1.22695 4.3955 1.22701 4.3955L4.30538 4.12209L4.60068 4.09587L4.71935 3.8242L5.93648 1.03775C5.9365 1.03769 5.93653 1.03764 5.93655 1.03758C5.94512 1.01824 5.96745 1 5.99988 1C6.03246 1 6.05488 1.0184 6.06336 1.03744C6.06339 1.03752 6.06342 1.03759 6.06346 1.03767L7.2804 3.82417L7.39906 4.09586L7.69437 4.12209L10.7731 4.39557L10.7734 4.3956C10.8061 4.39848 10.8249 4.41864 10.8306 4.43577Z" stroke="white"/>
</svg>
