<svg width="45" height="46" viewBox="0 0 45 46" fill="none" xmlns="http://www.w3.org/2000/svg">
<g clip-path="url(#clip0_2102_36062)">
<path d="M39.3764 19.2275H25.3987C24.7754 19.2275 24.27 19.7329 24.27 20.3563C24.27 20.9797 24.7754 21.485 25.3987 21.485H39.3764C39.9998 21.485 40.5051 20.9797 40.5051 20.3563C40.5051 19.7329 39.9997 19.2275 39.3764 19.2275Z" fill="#203F7E" stroke="#203F7E" stroke-width="0.5"/>
<path d="M39.3762 25.5537C39.6736 25.5537 39.9639 25.6741 40.1742 25.8844C40.3845 26.0947 40.5048 26.3849 40.5048 26.6824C40.5048 26.9797 40.3846 27.27 40.1741 27.4804C39.9639 27.6905 39.6737 27.811 39.3762 27.811C39.0788 27.811 38.7886 27.6907 38.5783 27.4803C38.3681 27.2702 38.2476 26.9799 38.2476 26.6824C38.2476 26.385 38.3679 26.0947 38.5783 25.8844C38.5783 25.8844 38.5783 25.8843 38.5783 25.8843M39.3762 25.5537L38.7551 26.0611M39.3762 25.5537C39.0788 25.5537 38.7885 25.6741 38.5783 25.8843M39.3762 25.5537L38.5783 25.8843M38.5783 25.8843L38.7551 26.0611M38.7551 26.0611C38.9184 25.8978 39.1451 25.8037 39.3762 25.8037C39.6073 25.8037 39.8339 25.8977 39.9974 26.0611C40.1609 26.2246 40.2548 26.4513 40.2548 26.6824C40.2548 26.9134 40.161 27.1401 39.9974 27.3036C39.8339 27.467 39.6073 27.561 39.3762 27.561C39.1451 27.561 38.9185 27.467 38.7551 27.3036C38.5917 27.1402 38.4976 26.9134 38.4976 26.6824C38.4976 26.4513 38.5915 26.2246 38.7551 26.0611Z" fill="#203F7E" stroke="#203F7E" stroke-width="0.5"/>
<path d="M35.6419 25.5537H25.3987C24.7755 25.5537 24.27 26.059 24.27 26.6824C24.27 27.3059 24.7754 27.8112 25.3987 27.8112H35.6419C36.2653 27.8112 36.7706 27.3058 36.7706 26.6824C36.7706 26.059 36.2651 25.5537 35.6419 25.5537Z" fill="#203F7E" stroke="#203F7E" stroke-width="0.5"/>
<path d="M39.3762 31.8809H29.0779C28.4546 31.8809 27.9492 32.3862 27.9492 33.0096C27.9492 33.633 28.4546 34.1383 29.0779 34.1383H39.3762C39.9996 34.1383 40.5049 33.633 40.5049 33.0096C40.5049 32.3862 39.9995 31.8809 39.3762 31.8809Z" fill="#203F7E" stroke="#203F7E" stroke-width="0.5"/>
<path d="M25.4505 31.8809H25.3875C24.7642 31.8809 24.2588 32.3862 24.2588 33.0096C24.2588 33.633 24.7642 34.1383 25.3875 34.1383H25.4505C26.0738 34.1383 26.5793 33.633 26.5793 33.0096C26.5793 32.3862 26.0737 31.8809 25.4505 31.8809Z" fill="#203F7E" stroke="#203F7E" stroke-width="0.5"/>
<path d="M36.9475 2.30525L36.9454 2.25645H36.6097H2.51695C2.51694 2.25645 2.51693 2.25645 2.51692 2.25645C0.935827 2.25636 -0.35 3.54211 -0.35 5.12328V41.9723C-0.35 42.651 0.200209 43.2011 0.87873 43.2011H44.1214C44.7999 43.2011 45.3501 42.651 45.3501 41.9723V10.9968V10.6603L45.3009 10.6584C45.2456 10.4628 45.1415 10.2793 44.9901 10.128L37.4785 2.61622C37.327 2.46469 37.1433 2.36054 36.9475 2.30525ZM37.8383 9.43186V6.45139L41.1551 9.76811H38.1746C37.9894 9.76811 37.8383 9.61702 37.8383 9.43186ZM42.8927 40.7435H2.10737V12.2255H33.1375C33.816 12.2255 34.3662 11.6754 34.3662 10.9968C34.3662 10.3181 33.816 9.76802 33.1375 9.76802H2.10737V5.12328C2.10737 4.89778 2.29142 4.71373 2.51692 4.71373H35.3809V9.43186C35.3809 10.9725 36.6338 12.2256 38.1746 12.2256H42.8927V40.7435Z" fill="#203F7E" stroke="#203F7E" stroke-width="0.7"/>
<path d="M17.5005 27.8919L17.5005 27.8918L20.08 25.3762L16.5142 24.859L16.5142 24.859L16.5501 24.6116L17.5005 27.8919ZM17.5005 27.8919C17.2348 28.1512 17.1133 28.5248 17.1763 28.8911M17.5005 27.8919L17.1763 28.8911M17.1763 28.8911L17.7863 32.4421L14.5968 30.7663C14.5968 30.7663 14.5967 30.7662 14.5967 30.7662C14.2678 30.5933 13.8751 30.5937 13.5463 30.7664L13.5461 30.7665L10.3574 32.444L10.9656 28.8926C10.9656 28.8926 10.9656 28.8926 10.9656 28.8926C11.0283 28.5264 10.9067 28.1529 10.6408 27.8937L10.6408 27.8936L8.05996 25.3793L11.6254 24.8602C11.9929 24.8067 12.3108 24.5758 12.475 24.2426C12.4751 24.2426 12.4751 24.2426 12.4751 24.2425L14.0688 21.0112L17.1763 28.8911ZM22.6675 23.4704L22.6675 23.4704L17.4256 22.7101L15.0802 17.961L15.0801 17.9609C14.8899 17.5759 14.4978 17.332 14.0681 17.332L14.0681 17.332C13.6386 17.3321 13.246 17.5761 13.0558 17.9615L13.0558 17.9615L10.713 22.7119L5.47152 23.4749C5.04633 23.5368 4.6932 23.8347 4.56055 24.2433L4.56054 24.2433C4.42789 24.652 4.53876 25.1004 4.84637 25.4002L4.84641 25.4003L8.64029 29.0965L7.74631 34.3172C7.7463 34.3172 7.7463 34.3173 7.7463 34.3173C7.67372 34.7408 7.84795 35.1686 8.19548 35.4211L8.19553 35.4212C8.39221 35.564 8.62508 35.6366 8.85887 35.6366C9.03872 35.6366 9.21911 35.5936 9.38429 35.5068L9.38431 35.5067L14.0718 33.0407L18.7608 35.5041C19.1411 35.7041 19.6019 35.6707 19.9495 35.4179C20.297 35.1653 20.4709 34.7372 20.3982 34.3138L20.3982 34.3138L19.5014 29.0936L23.2934 25.3955C23.2934 25.3955 23.2934 25.3955 23.2934 25.3955C23.6011 25.0954 23.7117 24.6468 23.5788 24.2383C23.4459 23.8297 23.0925 23.5321 22.6675 23.4704Z" fill="#203F7E" stroke="#203F7E" stroke-width="0.5"/>
</g>
<defs>
<clipPath id="clip0_2102_36062">
<rect width="45" height="45" fill="white" transform="translate(0 0.228516)"/>
</clipPath>
</defs>
</svg>
