<svg width="47" height="46" viewBox="0 0 47 46" fill="none" xmlns="http://www.w3.org/2000/svg">
<g clip-path="url(#clip0_1767_2399)">
<path d="M23.5693 0C10.8866 0 0.569336 10.3173 0.569336 23C0.569336 35.6827 10.8866 46 23.5693 46C36.252 46 46.5693 35.6827 46.5693 23C46.5693 10.3173 36.252 0 23.5693 0Z" fill="#F26D22"/>
<path d="M35.2264 18.1258L22.7679 30.5839C22.3942 30.9577 21.9035 31.1458 21.4129 31.1458C20.9223 31.1458 20.4316 30.9577 20.0579 30.5839L13.8288 24.3548C13.0792 23.6056 13.0792 22.3941 13.8288 21.6448C14.5781 20.8952 15.7892 20.8952 16.5389 21.6448L21.4129 26.5188L32.5163 15.4157C33.2656 14.6661 34.4767 14.6661 35.2264 15.4157C35.9757 16.165 35.9757 17.3762 35.2264 18.1258Z" fill="#FAFAFA"/>
</g>
<defs>
<clipPath id="clip0_1767_2399">
<rect width="46" height="46" fill="white" transform="translate(0.569336)" />
</clipPath>
</defs>
</svg>
