<svg width="24" height="24" viewBox="0 0 24 24" fill="none" xmlns="http://www.w3.org/2000/svg">
<g clip-path="url(#clip0_2152_12101)">
<path d="M23.7344 7.83203V6.61914C23.7344 5.2298 22.6081 4.10352 21.2188 4.10352H3.25C1.86066 4.10352 0.734375 5.2298 0.734375 6.61914V7.83203C0.734375 7.95606 0.834955 8.05664 0.958984 8.05664H23.5098C23.6338 8.05664 23.7344 7.95606 23.7344 7.83203Z" fill="white"/>
<path d="M0.734375 9.71875V17.4004C0.734375 18.7897 1.86066 19.916 3.25 19.916H21.2188C22.6081 19.916 23.7344 18.7897 23.7344 17.4004V9.71875C23.7344 9.59472 23.6338 9.49414 23.5098 9.49414H0.958984C0.834955 9.49414 0.734375 9.59472 0.734375 9.71875ZM6.48438 15.6035C6.48438 16.0004 6.16255 16.3223 5.76562 16.3223H5.04688C4.64995 16.3223 4.32812 16.0004 4.32812 15.6035V14.8848C4.32812 14.4878 4.64995 14.166 5.04688 14.166H5.76562C6.16255 14.166 6.48438 14.4878 6.48438 14.8848V15.6035Z" fill="white"/>
</g>
<defs>
<clipPath id="clip0_2152_12101">
<rect width="23" height="23" fill="white" transform="translate(0.734375 0.509766)"/>
</clipPath>
</defs>
</svg>
