<svg width="45" height="46" viewBox="0 0 45 46" fill="none" xmlns="http://www.w3.org/2000/svg">
<g clip-path="url(#clip0_2105_37186)">
<path d="M7.19108 37.8089C11.28 41.8979 16.7174 44.15 22.5 44.15C28.2826 44.15 33.7201 41.8979 37.8089 37.8089C41.8978 33.7199 44.15 28.2826 44.15 22.5C44.15 16.7174 41.8979 11.28 37.8089 7.19108C33.72 3.10214 28.2826 0.85 22.5 0.85C16.7174 0.85 11.2799 3.10205 7.19108 7.19108C3.10222 11.2801 0.85 16.7174 0.85 22.5C0.85 28.2826 3.10214 33.72 7.19108 37.8089ZM3.8375 22.5C3.8375 12.2096 12.2096 3.8375 22.5 3.8375C32.7904 3.8375 41.1625 12.2096 41.1625 22.5C41.1625 32.7904 32.7904 41.1625 22.5 41.1625C12.2096 41.1625 3.8375 32.7904 3.8375 22.5Z" fill="#203F7E" stroke="#203F7E" stroke-width="0.3"/>
<path d="M22.5 21C20.582 21 19.0389 19.5437 19.0389 17.775C19.0389 16.0063 20.582 14.55 22.5 14.55C24.418 14.55 25.9611 16.0063 25.9611 17.775C25.9611 18.6128 26.6846 19.275 27.5556 19.275C28.4265 19.275 29.15 18.6128 29.15 17.775C29.15 14.8501 26.9868 12.4018 24.0944 11.7327V10.35C24.0944 9.51223 23.3709 8.85 22.5 8.85C21.6291 8.85 20.9056 9.51223 20.9056 10.35V11.7327C18.0132 12.4018 15.85 14.8501 15.85 17.775C15.85 21.217 18.8428 24 22.5 24C24.418 24 25.9611 25.4563 25.9611 27.225C25.9611 28.9937 24.418 30.45 22.5 30.45C20.582 30.45 19.0389 28.9937 19.0389 27.225C19.0389 26.3872 18.3154 25.725 17.4444 25.725C16.5735 25.725 15.85 26.3872 15.85 27.225C15.85 30.1499 18.0132 32.5982 20.9056 33.2673V34.65C20.9056 35.4878 21.6291 36.15 22.5 36.15C23.3709 36.15 24.0944 35.4878 24.0944 34.65V33.2673C26.9868 32.5982 29.15 30.1499 29.15 27.225C29.15 23.783 26.1572 21 22.5 21Z" fill="#203F7E" stroke="#203F7E" stroke-width="0.3"/>
</g>
<defs>
<clipPath id="clip0_2105_37186">
<rect width="45" height="45" fill="white" transform="translate(0 0.228516)"/>
</clipPath>
</defs>
</svg>
