<svg width="37" height="36" viewBox="0 0 37 36" fill="none" xmlns="http://www.w3.org/2000/svg">
<g clip-path="url(#clip0_2152_4491)">
<path d="M18.1636 36C28.1047 36 36.1636 27.9411 36.1636 18C36.1636 8.05888 28.1047 0 18.1636 0C8.22245 0 0.163574 8.05888 0.163574 18C0.163574 27.9411 8.22245 36 18.1636 36Z" fill="#3B5998"/>
<path d="M22.6889 18.704H19.4771V30.4709H14.6108V18.704H12.2964V14.5687H14.6108V11.8927C14.6108 9.979 15.5198 6.98242 19.5204 6.98242L23.125 6.9975V11.0115H20.5096C20.0806 11.0115 19.4774 11.2259 19.4774 12.1388V14.5725H23.1141L22.6889 18.704Z" fill="white"/>
</g>
<defs>
<clipPath id="clip0_2152_4491">
<rect width="36" height="36" fill="white" transform="translate(0.163574)"/>
</clipPath>
</defs>
</svg>
