<svg width="37" height="36" viewBox="0 0 37 36" fill="none" xmlns="http://www.w3.org/2000/svg">
<g clip-path="url(#clip0_2152_4477)">
<path d="M18.1636 36C28.1047 36 36.1636 27.9411 36.1636 18C36.1636 8.05888 28.1047 0 18.1636 0C8.22245 0 0.163574 8.05888 0.163574 18C0.163574 27.9411 8.22245 36 18.1636 36Z" fill="#03A9F4"/>
<path d="M27.0736 20.0007C28.4449 13.8428 23.0473 8.24384 16.7118 9.31673C13.2705 7.18279 8.68995 9.59384 8.68995 13.6888C8.68801 14.6054 8.93349 15.5055 9.40048 16.2941C8.12627 22.4686 13.5689 27.9846 19.8997 26.8359C24.3831 29.2091 29.3307 24.4888 27.0736 20.0007ZM21.0507 23.7144C19.3928 24.3988 16.6502 24.4036 14.9947 23.5367C12.6263 22.2767 12.2142 19.4417 14.251 19.4417C15.7857 19.4417 15.3002 21.2323 16.8563 21.9617C17.5668 22.2909 19.0968 22.3241 19.985 21.7249C20.8731 21.1257 20.7689 20.2138 20.2952 19.7709C19.0305 18.6033 15.4139 19.0604 13.7584 17.0236C13.3726 16.5044 13.1669 15.8735 13.1724 15.2267C13.178 14.5799 13.3945 13.9526 13.7892 13.4402C15.3286 11.4578 19.8452 11.337 21.7897 12.8338C23.5826 14.2217 23.0994 16.0644 21.65 16.0644C19.9092 16.0644 20.8257 13.7859 18.0144 13.7859C15.9776 13.7859 15.1723 15.2354 16.61 15.9412C18.5615 16.9075 23.5163 16.5783 23.5163 20.3678C23.5163 21.938 22.5499 23.1104 21.0507 23.7215V23.7144Z" fill="white"/>
</g>
<defs>
<clipPath id="clip0_2152_4477">
<rect width="36" height="36" fill="white" transform="translate(0.163574)"/>
</clipPath>
</defs>
</svg>
