<svg width="37" height="36" viewBox="0 0 37 36" fill="none" xmlns="http://www.w3.org/2000/svg">
<g clip-path="url(#clip0_2152_4506)">
<path d="M18.1636 36C28.1047 36 36.1636 27.9411 36.1636 18C36.1636 8.05888 28.1047 0 18.1636 0C8.22245 0 0.163574 8.05888 0.163574 18C0.163574 27.9411 8.22245 36 18.1636 36Z" fill="#665CAC"/>
<path d="M20.0583 8.52539H16.2688C14.51 8.52539 12.8232 9.22407 11.5796 10.4677C10.3359 11.7114 9.63721 13.3982 9.63721 15.157V17.9991C9.63668 19.2545 9.99251 20.4843 10.6633 21.5454C11.3342 22.6066 12.2924 23.4555 13.4267 23.9935V27.1601C13.4278 27.2219 13.4469 27.282 13.4817 27.3331C13.5165 27.3841 13.5655 27.4239 13.6226 27.4475C13.6797 27.4712 13.7424 27.4776 13.8031 27.4661C13.8638 27.4546 13.9198 27.4257 13.9643 27.3828L16.7164 24.6307H20.0583C21.8171 24.6307 23.5038 23.932 24.7475 22.6883C25.9912 21.4446 26.6898 19.7579 26.6898 17.9991V15.157C26.6898 13.3982 25.9912 11.7114 24.7475 10.4677C23.5038 9.22407 21.8171 8.52539 20.0583 8.52539ZM22.5404 20.9549L21.593 21.9022C20.5841 22.8899 17.9504 21.7625 15.6293 19.3917C13.3083 17.0209 12.2898 14.3612 13.2609 13.3735L14.2083 12.4262C14.3939 12.2595 14.6353 12.1685 14.8848 12.1711C15.1343 12.1738 15.3738 12.2698 15.5559 12.4404L16.939 13.8614C17.0489 13.9748 17.1281 14.1142 17.1692 14.2666C17.2104 14.419 17.2121 14.5794 17.1742 14.7326C17.1363 14.8859 17.06 15.027 16.9526 15.1426C16.8452 15.2583 16.7101 15.3447 16.5601 15.3938C16.3377 15.462 16.1502 15.6133 16.0364 15.8162C15.9226 16.019 15.8913 16.258 15.949 16.4833C16.1859 17.5349 17.5217 18.8517 18.5164 19.1099C18.7407 19.1633 18.9767 19.1331 19.1803 19.025C19.3839 18.9169 19.5411 18.7382 19.6225 18.5225C19.675 18.372 19.7654 18.2376 19.8849 18.1322C20.0044 18.0268 20.1491 17.954 20.3049 17.9207C20.4608 17.8874 20.6226 17.8947 20.7747 17.9421C20.9269 17.9894 21.0643 18.0751 21.1738 18.1909L22.5546 19.612C22.7204 19.7971 22.8109 20.0376 22.8083 20.2862C22.8057 20.5347 22.7101 20.7733 22.5404 20.9549ZM19.0256 13.0254C18.9314 13.0249 18.8373 13.0305 18.7438 13.042C18.7026 13.0465 18.6609 13.0428 18.6211 13.0312C18.5813 13.0196 18.5442 13.0003 18.5118 12.9743C18.4795 12.9484 18.4526 12.9163 18.4327 12.88C18.4127 12.8436 18.4001 12.8037 18.3956 12.7625C18.3911 12.7213 18.3948 12.6796 18.4064 12.6398C18.418 12.6 18.4373 12.5629 18.4633 12.5305C18.4892 12.4982 18.5213 12.4713 18.5576 12.4514C18.594 12.4314 18.6339 12.4188 18.6751 12.4143C18.7915 12.4009 18.9085 12.3946 19.0256 12.3954C19.8638 12.3948 20.6679 12.727 21.2612 13.319C21.8546 13.911 22.1886 14.7143 22.1898 15.5525C22.1906 15.6696 22.1843 15.7867 22.1709 15.903C22.1664 15.9442 22.1538 15.9842 22.1339 16.0205C22.1139 16.0568 22.087 16.0889 22.0547 16.1149C22.0224 16.1408 21.9852 16.1601 21.9454 16.1718C21.9056 16.1834 21.8639 16.187 21.8227 16.1825C21.7815 16.178 21.7416 16.1654 21.7053 16.1455C21.6689 16.1255 21.6368 16.0986 21.6109 16.0663C21.5849 16.034 21.5656 15.9968 21.554 15.957C21.5424 15.9172 21.5387 15.8755 21.5433 15.8343C21.5536 15.7407 21.5591 15.6467 21.5598 15.5525C21.5586 14.8814 21.291 14.2383 20.8158 13.7644C20.3406 13.2906 19.6967 13.0248 19.0256 13.0254ZM20.9204 15.5525C20.9135 15.6316 20.8772 15.7053 20.8187 15.759C20.7602 15.8127 20.6836 15.8425 20.6042 15.8425C20.5248 15.8425 20.4482 15.8127 20.3897 15.759C20.3311 15.7053 20.2949 15.6316 20.288 15.5525C20.288 15.2177 20.155 14.8966 19.9183 14.6599C19.6815 14.4231 19.3604 14.2901 19.0256 14.2901C18.9818 14.2939 18.9377 14.2886 18.896 14.2744C18.8544 14.2602 18.8161 14.2376 18.7837 14.2078C18.7513 14.1781 18.7254 14.142 18.7077 14.1017C18.69 14.0614 18.6809 14.0179 18.6809 13.9739C18.6809 13.93 18.69 13.8865 18.7077 13.8462C18.7254 13.8059 18.7513 13.7698 18.7837 13.74C18.8161 13.7103 18.8544 13.6876 18.896 13.6735C18.9377 13.6593 18.9818 13.654 19.0256 13.6578C19.5281 13.6578 20.0101 13.8574 20.3654 14.2127C20.7207 14.568 20.9204 15.05 20.9204 15.5525ZM23.329 16.578C23.322 16.6211 23.3062 16.6622 23.2826 16.6989C23.259 16.7356 23.2281 16.767 23.1918 16.7912C23.1555 16.8154 23.1146 16.8318 23.0716 16.8395C23.0287 16.8471 22.9846 16.8459 22.9422 16.8358C22.8998 16.8257 22.8599 16.8069 22.825 16.7807C22.7901 16.7544 22.7611 16.7213 22.7396 16.6833C22.7181 16.6454 22.7047 16.6034 22.7001 16.56C22.6956 16.5166 22.7001 16.4728 22.7133 16.4312C22.7817 16.1449 22.8158 15.8516 22.8151 15.5572C22.8151 14.5522 22.4159 13.5883 21.7052 12.8777C20.9945 12.167 20.0307 11.7678 19.0256 11.7678C18.9285 11.7678 18.8291 11.7678 18.7319 11.7678C18.6906 11.7709 18.649 11.7658 18.6096 11.7528C18.5702 11.7399 18.5337 11.7193 18.5023 11.6922C18.4388 11.6376 18.3995 11.56 18.3933 11.4764C18.387 11.3929 18.4141 11.3103 18.4688 11.2468C18.5234 11.1833 18.601 11.144 18.6846 11.1378C18.7983 11.1283 18.9119 11.1235 19.0256 11.1235C20.199 11.1254 21.3237 11.5929 22.1528 12.4233C22.9818 13.2537 23.4475 14.3791 23.4475 15.5525C23.4476 15.8978 23.4079 16.2419 23.329 16.578Z" fill="white"/>
</g>
<defs>
<clipPath id="clip0_2152_4506">
<rect width="36" height="36" fill="white" transform="translate(0.163574)"/>
</clipPath>
</defs>
</svg>
