<svg width="37" height="36" viewBox="0 0 37 36" fill="none" xmlns="http://www.w3.org/2000/svg">
<g clip-path="url(#clip0_2152_4469)">
<path d="M28.7808 36H7.54639C3.4755 36 0.163574 32.6881 0.163574 28.6172V7.38281C0.163574 3.31193 3.4755 0 7.54639 0H28.7808C32.8516 0 36.1636 3.31193 36.1636 7.38281V28.6172C36.1636 32.6881 32.8516 36 28.7808 36Z" fill="#87E694"/>
<path d="M28.7808 0H18.1636V36H28.7808C32.8516 36 36.1636 32.6881 36.1636 28.6172V7.38281C36.1636 3.31193 32.8516 0 28.7808 0Z" fill="#66CC70"/>
<path d="M18.1636 7.45312C11.5621 7.45312 6.21045 11.8603 6.21045 17.2969C6.21045 20.4381 7.99709 23.2355 10.7791 25.0379L10.1479 28.8281L14.4136 26.6458C15.5931 26.9665 16.8536 27.1406 18.1636 27.1406C24.7651 27.1406 30.1167 22.7334 30.1167 17.2969C30.1167 11.8603 24.7651 7.45312 18.1636 7.45312Z" fill="white"/>
<path d="M18.1636 7.45312V27.1406C24.7651 27.1406 30.1167 22.7334 30.1167 17.2969C30.1167 11.8603 24.7651 7.45312 18.1636 7.45312Z" fill="#F2F2F2"/>
</g>
<defs>
<clipPath id="clip0_2152_4469">
<rect width="36" height="36" fill="white" transform="translate(0.163574)"/>
</clipPath>
</defs>
</svg>
