<svg width="37" height="36" viewBox="0 0 37 36" fill="none" xmlns="http://www.w3.org/2000/svg">
<g clip-path="url(#clip0_2152_4483)">
<path d="M18.1636 36C28.1047 36 36.1636 27.9411 36.1636 18C36.1636 8.05887 28.1047 0 18.1636 0C8.22245 0 0.163574 8.05887 0.163574 18C0.163574 27.9411 8.22245 36 18.1636 36Z" fill="#29A71A"/>
<path d="M26.0998 10.0644C24.227 8.17301 21.74 7.01305 19.0873 6.79381C16.4347 6.57456 13.791 7.31046 11.6331 8.86876C9.47523 10.4271 7.94524 12.7052 7.3191 15.2922C6.69297 17.8792 7.01191 20.6048 8.2184 22.9774L7.03408 28.7272C7.02179 28.7844 7.02144 28.8436 7.03306 28.9009C7.04467 28.9583 7.068 29.0127 7.10158 29.0606C7.15077 29.1334 7.22099 29.1894 7.30286 29.2212C7.38473 29.253 7.47436 29.259 7.55976 29.2385L13.195 27.9029C15.5609 29.0788 18.2673 29.3772 20.8326 28.7451C23.3978 28.1129 25.6556 26.5911 27.2042 24.4505C28.7528 22.3099 29.4917 19.6893 29.2895 17.055C29.0872 14.4207 27.957 11.9436 26.0998 10.0644ZM24.3427 24.0881C23.047 25.3802 21.3784 26.2331 19.5722 26.5267C17.766 26.8203 15.9133 26.5397 14.275 25.7245L13.4895 25.3358L10.0348 26.154L10.045 26.111L10.7609 22.6338L10.3764 21.8749C9.53927 20.2309 9.24398 18.3642 9.53278 16.5421C9.82158 14.72 10.6797 13.0361 11.9841 11.7315C13.6231 10.093 15.8458 9.17249 18.1634 9.17249C20.481 9.17249 22.7037 10.093 24.3427 11.7315C24.3567 11.7475 24.3717 11.7625 24.3877 11.7765C26.0064 13.4192 26.9101 15.6353 26.9017 17.9416C26.8932 20.2478 25.9734 22.4572 24.3427 24.0881Z" fill="white"/>
<path d="M24.0358 21.5375C23.6124 22.2043 22.9435 23.0205 22.1029 23.223C20.6301 23.5789 18.3699 23.2352 15.5574 20.613L15.5226 20.5823C13.0497 18.2893 12.4074 16.3809 12.5629 14.8673C12.6488 14.0082 13.3647 13.2309 13.9681 12.7237C14.0635 12.6422 14.1766 12.5843 14.2984 12.5544C14.4202 12.5245 14.5473 12.5236 14.6696 12.5516C14.7918 12.5796 14.9058 12.6358 15.0024 12.7158C15.0991 12.7958 15.1756 12.8972 15.226 13.0121L16.1363 15.0575C16.1954 15.1902 16.2173 15.3364 16.1997 15.4805C16.182 15.6247 16.1255 15.7613 16.036 15.8757L15.5758 16.473C15.4771 16.5963 15.4175 16.7464 15.4047 16.9038C15.392 17.0613 15.4266 17.219 15.5042 17.3566C15.762 17.8087 16.3797 18.4734 17.0649 19.0891C17.834 19.7846 18.687 20.4207 19.227 20.6375C19.3714 20.6966 19.5303 20.711 19.6831 20.6789C19.8358 20.6468 19.9755 20.5697 20.084 20.4575L20.6179 19.9196C20.7209 19.818 20.849 19.7455 20.9891 19.7096C21.1293 19.6737 21.2764 19.6755 21.4156 19.715L23.5776 20.3287C23.6969 20.3652 23.8062 20.4286 23.8972 20.5139C23.9882 20.5992 24.0585 20.7042 24.1028 20.8209C24.147 20.9375 24.1639 21.0628 24.1523 21.187C24.1407 21.3112 24.1009 21.4311 24.0358 21.5375Z" fill="white"/>
</g>
<defs>
<clipPath id="clip0_2152_4483">
<rect width="36" height="36" fill="white" transform="translate(0.163574)"/>
</clipPath>
</defs>
</svg>
