<svg width="37" height="36" viewBox="0 0 37 36" fill="none" xmlns="http://www.w3.org/2000/svg">
<g clip-path="url(#clip0_2152_4512)">
<path d="M18.1636 36C28.1047 36 36.1636 27.9411 36.1636 18C36.1636 8.05887 28.1047 0 18.1636 0C8.22245 0 0.163574 8.05887 0.163574 18C0.163574 27.9411 8.22245 36 18.1636 36Z" fill="#2DC100"/>
<path d="M26.0794 15.7483C20.0965 12.7088 13.2974 18.2949 16.4065 23.4188C17.8506 25.8242 21.1826 27.344 25.1242 26.2047C25.9137 26.5095 26.6153 27.0065 27.3742 27.3767C27.1697 26.7099 26.9651 26.0533 26.7422 25.3988C30.8208 22.4983 29.929 17.7058 26.0794 15.7483ZM21.3033 19.2051C21.2484 19.35 21.1579 19.4788 21.0402 19.5797C20.9226 19.6805 20.7814 19.7501 20.6298 19.7821C20.4782 19.8141 20.3209 19.8075 20.1725 19.7629C20.0241 19.7183 19.8893 19.6371 19.7805 19.5268C19.6717 19.4164 19.5923 19.2805 19.5498 19.1315C19.5072 18.9825 19.5028 18.8252 19.5369 18.674C19.571 18.5229 19.6425 18.3827 19.745 18.2664C19.8474 18.1501 19.9774 18.0615 20.1231 18.0085C20.8124 17.7181 21.606 18.5158 21.3033 19.2051ZM25.7808 19.2931H25.7931C25.7264 19.4218 25.6308 19.5333 25.5138 19.6188C25.3968 19.7044 25.2615 19.7617 25.1187 19.7863C24.9758 19.8108 24.8292 19.802 24.6904 19.7604C24.5515 19.7189 24.4242 19.6457 24.3183 19.5467C24.1514 19.3507 24.0405 19.1133 23.9972 18.8595C24.0933 18.4279 24.3899 17.982 24.8685 17.9615C25.5272 17.8695 26.1183 18.6876 25.7808 19.2931Z" fill="white"/>
<path d="M23.2361 14.4974C22.8271 12.4887 21.4239 10.793 19.6566 9.81531H19.6811C13.4057 6.26849 5.59408 11.2144 7.10363 17.046C7.51272 18.7765 8.70522 20.2287 10.1575 21.1962C9.87727 21.996 9.60931 22.7937 9.35772 23.5976C10.27 23.119 11.1843 22.6178 12.0986 22.131C13.2041 22.4895 14.3632 22.6542 15.5248 22.6178C14.093 18.486 17.7748 14.1087 23.2361 14.4974ZM17.5498 12.098C17.7264 12.034 17.916 12.0141 18.1021 12.04C18.2882 12.066 18.4651 12.1369 18.6175 12.2468C18.7699 12.3567 18.8932 12.5021 18.9766 12.6705C19.06 12.8388 19.1011 13.025 19.0961 13.2128V13.2251C19.0961 14.1271 17.9016 14.6917 17.2266 14.0801C16.527 13.5749 16.7316 12.3517 17.5498 12.098ZM13.42 13.4542C13.2584 14.2396 12.2111 14.618 11.5975 14.0903C10.8857 13.5871 11.0861 12.3414 11.9207 12.0878C12.7389 11.7708 13.6675 12.6053 13.42 13.4542Z" fill="white"/>
</g>
<defs>
<clipPath id="clip0_2152_4512">
<rect width="36" height="36" fill="white" transform="translate(0.163574)"/>
</clipPath>
</defs>
</svg>
