<svg width="11" height="11" viewBox="0 0 11 11" fill="none" xmlns="http://www.w3.org/2000/svg">
<path d="M10.6388 4.27888C10.569 4.06758 10.3774 3.91751 10.1508 3.89753L7.07211 3.62405L5.85471 0.836529C5.76495 0.632239 5.56051 0.5 5.33338 0.5C5.10624 0.5 4.90181 0.632239 4.81204 0.837006L3.59465 3.62405L0.515473 3.89753C0.289231 3.91799 0.0981455 4.06758 0.0279127 4.27888C-0.0423201 4.49018 0.0225415 4.72193 0.193688 4.86802L2.52081 6.86458L1.8346 9.82169C1.78438 10.0391 1.87065 10.2639 2.05506 10.3943C2.15418 10.4643 2.27015 10.5 2.3871 10.5C2.48793 10.5 2.58795 10.4734 2.67771 10.4209L5.33338 8.86815L7.98806 10.4209C8.18232 10.5352 8.4272 10.5248 8.6112 10.3943C8.7957 10.2635 8.88188 10.0386 8.83167 9.82169L8.14545 6.86458L10.4726 4.86842C10.6437 4.72193 10.7091 4.49057 10.6388 4.27888Z" fill="white"/>
</svg>
