<svg width="84" height="28" viewBox="0 0 84 28" fill="none" xmlns="http://www.w3.org/2000/svg">
<path d="M4.07191 0H80.0639C81.9175 0 83.4239 1.5064 83.4239 3.36V24.64C83.4239 26.4936 81.9175 28 80.0639 28H4.07191C2.21831 28 0.711914 26.4936 0.711914 24.64V3.36C0.711914 1.5064 2.21831 0 4.07191 0Z" fill="#203F7E"/>
<path d="M10.8023 13.4436C10.8023 13.4436 5.09589 10.2796 4.75989 10.0948C4.42389 9.91 4.08789 10.022 4.08789 10.4084V24.0444C4.08789 24.3356 4.32869 24.4588 4.61989 24.302C4.91109 24.1396 10.8023 20.8748 10.8023 20.8748C10.8023 20.8748 11.6031 20.4324 12.0007 20.2084C12.6447 19.85 13.9327 19.1388 13.9327 19.1388C13.9327 19.1388 16.5927 17.666 16.9455 17.47C17.2983 17.274 17.2647 17.0052 16.9679 16.854C16.6711 16.7028 13.9383 15.174 13.9383 15.174L10.8023 13.4436Z" fill="url(#paint0_linear_2105_37240)"/>
<path d="M11.8558 17.1432L4.35178 10.0312C4.17818 10.0705 4.07178 10.2049 4.07178 10.4233V24.0312C4.07178 24.2161 4.14458 24.3281 4.23978 24.3673L11.8558 17.1432Z" fill="url(#paint1_linear_2105_37240)"/>
<mask id="mask0_2105_37240" style="mask-type:alpha" maskUnits="userSpaceOnUse" x="4" y="10" width="8" height="15">
<path d="M11.8558 17.1432L4.35178 10.0312C4.17818 10.0705 4.07178 10.2049 4.07178 10.4233V24.0312C4.07178 24.2161 4.14458 24.3281 4.23978 24.3673L11.8558 17.1432Z" fill="white"/>
</mask>
<g mask="url(#mask0_2105_37240)">
</g>
<mask id="mask1_2105_37240" style="mask-type:alpha" maskUnits="userSpaceOnUse" x="4" y="17" width="10" height="8">
<path d="M4.54726 24.3313L8.88726 21.9457C9.95686 21.3521 10.8025 20.8817 10.8025 20.8817L13.9553 19.1849L11.8553 17.1465L4.23926 24.3705C4.32326 24.3985 4.47446 24.3817 4.59206 24.3257" fill="white"/>
</mask>
<g mask="url(#mask1_2105_37240)">
<path d="M10.7913 13.4484C10.7801 13.4764 5.07369 10.3068 4.74329 10.1444C4.40729 9.93163 4.07129 10.0492 4.07129 10.4244V24.0884C4.07129 24.3908 4.31209 24.514 4.57529 24.3684C4.89449 24.1892 10.7801 20.9244 10.7913 20.8964L13.9273 19.1604C13.9105 19.1828 16.5649 17.71 16.8953 17.5364C17.2761 17.318 17.2369 17.0492 16.9513 16.9204C16.6433 16.7412 13.9105 15.2124 13.9273 15.1844L10.7913 13.4484Z" fill="url(#paint2_linear_2105_37240)"/>
</g>
<path d="M4.74793 10.0886C4.60233 10.0158 4.46233 9.99343 4.34473 10.0214L11.8543 17.1446L13.9319 15.179L10.8015 13.443C10.8015 13.443 7.85033 11.8078 6.06953 10.8222L4.74793 10.0886Z" fill="url(#paint3_linear_2105_37240)"/>
<mask id="mask2_2105_37240" style="mask-type:alpha" maskUnits="userSpaceOnUse" x="4" y="10" width="10" height="8">
<path d="M4.74793 10.0886C4.60233 10.0158 4.46233 9.99343 4.34473 10.0214L11.8543 17.1446L13.9319 15.179L10.8015 13.443C10.8015 13.443 7.85033 11.8078 6.06953 10.8222L4.74793 10.0886Z" fill="white"/>
</mask>
<g mask="url(#mask2_2105_37240)">
</g>
<path d="M57.3634 19.5383L56.7418 20.1263C56.5962 20.2047 56.4562 20.2999 56.3162 20.3615C55.885 20.5575 55.4482 20.6079 55.0562 20.6079C54.6418 20.6079 53.9922 20.5799 53.3314 20.0983C52.413 19.4487 52.0098 18.3231 52.0098 17.3487C52.0098 15.3271 53.645 14.3359 54.9834 14.3359C55.4482 14.3359 55.9298 14.4535 56.3162 14.6999C56.9658 15.1311 57.1338 15.6911 57.2234 15.9935L54.177 17.2311L53.1802 17.3095C53.505 18.9671 54.6194 19.9303 55.8514 19.9303C56.4674 19.9303 56.921 19.7287 57.341 19.5215C57.341 19.5215 57.425 19.4767 57.3634 19.5383ZM55.5042 16.2119C55.7506 16.1223 55.8738 16.0439 55.8738 15.8591C55.8738 15.3327 55.297 14.7279 54.6026 14.7279C54.093 14.7279 53.1298 15.1367 53.1298 16.5535C53.1298 16.7775 53.1578 17.0127 53.169 17.2479L55.5042 16.2119Z" fill="white"/>
<path d="M50.9988 19.4674C50.9988 19.9714 51.0884 20.0498 51.514 20.089C51.738 20.117 51.9564 20.1282 52.1748 20.1506L51.6988 20.4362H49.4196C49.7164 20.0442 49.7724 20.005 49.7724 19.7474V19.4562L49.7668 11.7282H48.7588L49.7276 11.2578H51.5756C51.1724 11.493 51.0548 11.633 51.0044 12.0866L50.9988 19.4674Z" fill="white"/>
<path d="M47.4664 14.9763C47.7632 15.2227 48.3792 15.7435 48.3792 16.7291C48.3792 17.6923 47.8416 18.1459 47.2984 18.5771C47.1304 18.7451 46.9344 18.9299 46.9344 19.2155C46.9344 19.5011 47.1304 19.6579 47.2704 19.7755L47.7352 20.1395C48.3008 20.6211 48.816 21.0635 48.816 21.9595C48.816 23.1803 47.64 24.4179 45.4224 24.4179C43.552 24.4179 42.6504 23.5219 42.6504 22.5587C42.6504 22.0883 42.88 21.4275 43.6472 20.9739C44.448 20.4811 45.5288 20.4139 46.1112 20.3747C45.932 20.1395 45.7248 19.8931 45.7248 19.4899C45.7248 19.2715 45.792 19.1371 45.8536 18.9803C45.7136 18.9915 45.568 19.0083 45.4392 19.0083C44.0728 19.0083 43.3 17.9779 43.3 16.9643C43.3 16.3651 43.5688 15.7043 44.1288 15.2227C44.8624 14.6123 45.7416 14.5059 46.436 14.5059H49.096L48.2672 14.9763H47.4664ZM46.5592 20.7387C46.4528 20.7219 46.3912 20.7219 46.2624 20.7219C46.1448 20.7219 45.4392 20.7499 44.896 20.9347C44.6104 21.0411 43.776 21.3603 43.776 22.3011C43.776 23.2419 44.672 23.9195 46.0664 23.9195C47.3152 23.9195 47.976 23.3091 47.976 22.4915C47.976 21.8083 47.5448 21.4499 46.5592 20.7387ZM46.9232 18.2299C47.22 17.9331 47.248 17.5187 47.248 17.2835C47.248 16.3483 46.6992 14.8979 45.6296 14.8979C45.2992 14.8979 44.9352 15.0659 44.728 15.3291C44.5096 15.5979 44.448 15.9507 44.448 16.2867C44.448 17.1547 44.952 18.5939 46.0552 18.5939C46.3744 18.5939 46.7216 18.4371 46.9232 18.2299Z" fill="white"/>
<path d="M39.4243 20.6079C37.3691 20.6079 36.2715 18.9839 36.2715 17.5167C36.2715 15.8031 37.6547 14.3359 39.6203 14.3359C41.5187 14.3359 42.7115 15.8423 42.7115 17.4271C42.7115 18.9727 41.5355 20.6079 39.4243 20.6079ZM41.0315 19.5495C41.3451 19.1295 41.4235 18.6031 41.4235 18.0935C41.4235 16.9343 40.8803 14.7279 39.2675 14.7279C38.8419 14.7279 38.4107 14.8959 38.0971 15.1759C37.5931 15.6351 37.4979 16.2119 37.4979 16.7775C37.4979 18.0767 38.1307 20.2159 39.7043 20.2159C40.2195 20.2159 40.7347 19.9695 41.0315 19.5495Z" fill="white"/>
<path d="M32.5395 20.6079C30.4843 20.6079 29.3867 18.9839 29.3867 17.5167C29.3867 15.8031 30.7699 14.3359 32.7355 14.3359C34.6339 14.3359 35.8267 15.8423 35.8267 17.4271C35.8267 18.9727 34.6507 20.6079 32.5395 20.6079ZM34.1467 19.5495C34.4603 19.1295 34.5387 18.6031 34.5387 18.0935C34.5387 16.9343 33.9899 14.7279 32.3827 14.7279C31.9515 14.7279 31.5259 14.8959 31.2123 15.1759C30.7027 15.6351 30.6131 16.2119 30.6131 16.7775C30.6131 18.0767 31.2515 20.2159 32.8195 20.2159C33.3347 20.2159 33.8499 19.9695 34.1467 19.5495Z" fill="white"/>
<path d="M28.5333 20.222L26.7917 20.6252C26.0861 20.7372 25.4533 20.838 24.7813 20.838C21.4213 20.8324 20.1445 18.346 20.1445 16.3972C20.1445 14.0228 21.9589 11.8164 25.0613 11.8164C25.7165 11.8164 26.3493 11.9116 26.9261 12.074C27.8389 12.3316 28.2645 12.6508 28.5333 12.8356L27.5197 13.8044L27.0941 13.8996L27.3965 13.4124C26.9821 13.0092 26.2261 12.2588 24.7925 12.2588C22.8717 12.2588 21.4213 13.726 21.4213 15.8708C21.4213 18.1724 23.0733 20.3396 25.7277 20.3396C26.5061 20.3396 26.9093 20.1828 27.2733 20.0372V18.0604L25.4365 18.1612L26.4109 17.6348H28.9925L28.6789 17.9428C28.5949 18.0156 28.5837 18.038 28.5557 18.1388C28.5445 18.2508 28.5333 18.6036 28.5333 18.7324V20.222Z" fill="white"/>
<path d="M61.1191 19.5943V22.9039H60.4639V14.4871H61.1191V15.4447C61.5447 14.8231 62.3287 14.3359 63.2303 14.3359C64.8543 14.3359 65.9519 15.5735 65.9519 17.5279C65.9519 19.4711 64.8599 20.7311 63.2303 20.7311C62.3791 20.7311 61.6119 20.2887 61.1191 19.5943ZM65.2799 17.5783C65.2799 16.0887 64.5127 14.9519 63.1463 14.9519C62.3007 14.9519 61.4887 15.6239 61.1359 16.2119V18.9335C61.4887 19.5215 62.3007 20.2159 63.1463 20.2159C64.5127 20.2159 65.2799 19.0679 65.2799 17.5783Z" fill="white"/>
<path d="M66.8477 12.1523H67.5197V20.6083H66.8477V12.1523Z" fill="white"/>
<path d="M74.8256 22.3248C74.9656 22.3864 75.2064 22.4256 75.3576 22.4256C75.7608 22.4256 76.0352 22.2632 76.2872 21.6808L76.7632 20.5944L74.1816 14.4512H74.9152L77.1272 19.7768L79.3224 14.4512H80.0616L76.9144 21.8824C76.5896 22.6496 76.0744 23.0192 75.3688 23.0192C75.156 23.0192 74.876 22.98 74.7136 22.9296L74.8256 22.3248Z" fill="white"/>
<path d="M72.9735 20.6023C72.9287 20.3895 72.8951 20.2047 72.8727 20.0479C72.8503 19.8911 72.8391 19.7343 72.8391 19.5719C72.6151 19.9023 72.2959 20.1823 71.8815 20.4007C71.4727 20.6191 71.0807 20.7255 70.5487 20.7255C69.9047 20.7255 69.4063 20.5687 69.0535 20.2439C68.7007 19.9247 68.5215 19.4879 68.5215 18.9391C68.5215 18.3903 68.7791 17.9423 69.2943 17.6007C69.8095 17.2591 70.4759 17.0855 71.2991 17.0855H72.8335V16.3239C72.8335 15.8871 72.6823 15.5399 72.3855 15.2935C72.0887 15.0415 71.6687 14.9183 71.1255 14.9183C70.6271 14.9183 70.2239 15.0359 69.9159 15.2599C69.6135 15.4895 69.4567 15.7751 69.4567 16.1167H68.7847L68.7735 16.0831C68.7511 15.6183 68.9583 15.2151 69.4119 14.8623C69.8599 14.5095 70.4423 14.3359 71.1647 14.3359C71.8815 14.3359 72.4639 14.5095 72.9007 14.8567C73.3375 15.1983 73.5559 15.6967 73.5559 16.3407V19.3647C73.5559 19.5831 73.5671 19.7903 73.5951 19.9975C73.6231 20.2047 73.6679 20.4063 73.7239 20.6023H72.9735ZM70.6327 20.1599C71.1927 20.1599 71.5959 20.0311 72.0047 19.7847C72.4135 19.5383 72.6879 19.2135 72.8335 18.8215V17.6399H71.2879C70.6999 17.6399 70.2127 17.7687 69.8263 18.0375C69.4399 18.3007 69.2495 18.6199 69.2495 18.9951C69.2495 19.3479 69.3727 19.6279 69.6191 19.8407C69.8711 20.0535 70.2071 20.1599 70.6327 20.1599Z" fill="white"/>
<path d="M19.9194 6.4531C19.9194 5.2491 20.8826 4.4707 22.081 4.4707C22.8818 4.4707 23.4082 4.8291 23.7386 5.2659L23.1506 5.5795C22.9266 5.2939 22.5402 5.0699 22.081 5.0699C21.269 5.0699 20.6586 5.6467 20.6586 6.4531C20.6642 7.2539 21.269 7.8363 22.081 7.8363C22.501 7.8363 22.8706 7.6571 23.0554 7.4891V6.9011H21.8234V6.3075H23.7722V7.7355C23.369 8.1555 22.7922 8.4355 22.081 8.4355C20.8826 8.4411 19.9194 7.6571 19.9194 6.4531Z" fill="white"/>
<path d="M24.7051 8.38405V4.53125H27.5667V5.12485H25.4387V6.11605H27.5219V6.71525H25.4387V7.79045H27.5667V8.38405H24.7051Z" fill="white"/>
<path d="M29.5118 8.386V5.1268H28.2686V4.5332H31.4774V5.1268H30.2342V8.386H29.5118Z" fill="white"/>
<path d="M34.0479 4.53125H34.7479V8.38405H34.0479V4.53125Z" fill="white"/>
<path d="M36.752 8.38405V5.12485H35.5088V4.53125H38.7176V5.12485H37.4744V8.38405H36.752Z" fill="white"/>
<path d="M41.1152 6.45896C41.1152 5.31656 41.9944 4.47656 43.2488 4.47656C44.492 4.47656 45.3768 5.31656 45.3768 6.45896C45.3768 7.60136 44.4864 8.44136 43.2488 8.44136C41.9944 8.44136 41.1152 7.60136 41.1152 6.45896ZM44.6152 6.42536C44.6152 5.64136 44.0776 5.05336 43.2432 5.05336C42.4032 5.05336 41.8712 5.64136 41.8712 6.42536C41.8712 7.20376 42.4032 7.79736 43.2432 7.79736C44.0776 7.79736 44.6152 7.20936 44.6152 6.42536Z" fill="white"/>
<path d="M49.0547 8.38405L46.9099 5.62885V8.38405H46.1875V4.53125H46.9267L49.0267 7.20245V4.53125H49.7491V8.38405H49.0547Z" fill="white"/>
<defs>
<linearGradient id="paint0_linear_2105_37240" x1="7.18332" y1="14.5418" x2="11.9388" y2="21.5204" gradientUnits="userSpaceOnUse">
<stop stop-color="#FF177B"/>
<stop offset="1" stop-color="#FFEC73"/>
</linearGradient>
<linearGradient id="paint1_linear_2105_37240" x1="9.20815" y1="4.77487" x2="0.666393" y2="22.914" gradientUnits="userSpaceOnUse">
<stop stop-color="#064AA2"/>
<stop offset="1" stop-color="#63FFD4"/>
</linearGradient>
<linearGradient id="paint2_linear_2105_37240" x1="11.7944" y1="12.9193" x2="1.28169" y2="19.2082" gradientUnits="userSpaceOnUse">
<stop stop-color="#FF4521"/>
<stop offset="1" stop-color="#8A33DB"/>
</linearGradient>
<linearGradient id="paint3_linear_2105_37240" x1="5.76469" y1="7.73897" x2="9.52844" y2="17.5221" gradientUnits="userSpaceOnUse">
<stop stop-color="#00A3B5"/>
<stop offset="1" stop-color="#D6FFA1"/>
</linearGradient>
</defs>
</svg>
