<svg width="12" height="12" viewBox="0 0 12 12" fill="none" xmlns="http://www.w3.org/2000/svg">
<path d="M5.53412 0.191818L1.2004 4.52544C1.07669 4.64914 1.00879 4.81402 1.00879 4.98982C1.00879 5.16582 1.07679 5.3306 1.2004 5.45431L1.59396 5.84777C1.71747 5.97137 1.88244 6.03947 2.05834 6.03947C2.23415 6.03947 2.40468 5.97137 2.52819 5.84777L5.06193 3.31959L5.06193 11.3517C5.06193 11.7139 5.34544 12 5.70768 12H6.26406C6.62631 12 6.9384 11.7139 6.9384 11.3517L6.9384 3.29091L9.48628 5.84767C9.60999 5.97128 9.77048 6.03937 9.94638 6.03937C10.1221 6.03937 10.2849 5.97128 10.4085 5.84767L10.8008 5.45421C10.9245 5.3305 10.9919 5.16572 10.9919 4.98972C10.9919 4.81392 10.9236 4.64904 10.7999 4.52534L6.46631 0.191721C6.34221 0.0677223 6.17655 -0.000472069 6.00046 1.52588e-05C5.82378 -0.000374794 5.65802 0.0677223 5.53412 0.191818Z" fill="white"/>
</svg>
