<svg width="80" height="81" viewBox="0 0 80 81" fill="none" xmlns="http://www.w3.org/2000/svg">
<circle cx="40" cy="40.5" r="40" fill="#203F7E"/>
<path d="M40.0008 40.5C38.428 40.5 37.1412 39.24 37.1412 37.7C37.1412 36.16 38.428 34.9 40.0008 34.9C41.5736 34.9 42.8604 36.16 42.8604 37.7C42.8604 39.24 41.5736 40.5 40.0008 40.5ZM48.5795 37.98C48.5795 32.898 44.7906 29.3 40.0008 29.3C35.211 29.3 31.4221 32.898 31.4221 37.98C31.4221 41.256 34.2102 45.596 40.0008 50.776C45.7914 45.596 48.5795 41.256 48.5795 37.98ZM40.0008 26.5C46.0059 26.5 51.4391 31.008 51.4391 37.98C51.4391 42.628 47.6216 48.13 40.0008 54.5C32.38 48.13 28.5625 42.628 28.5625 37.98C28.5625 31.008 33.9957 26.5 40.0008 26.5Z" fill="white"/>
</svg>
