<svg width="80" height="81" viewBox="0 0 80 81" fill="none" xmlns="http://www.w3.org/2000/svg">
<circle cx="40" cy="40.5" r="40" fill="#203F7E"/>
<path d="M31.5067 29.6111C31.6 30.9956 31.8333 32.3489 32.2067 33.64L30.34 35.5067C29.7022 33.64 29.2978 31.6644 29.1578 29.6111H31.5067ZM46.8444 48.3089C48.1667 48.6822 49.52 48.9156 50.8889 49.0089V51.3267C48.8356 51.1867 46.86 50.7822 44.9778 50.16L46.8444 48.3089ZM33 26.5H27.5556C26.7 26.5 26 27.2 26 28.0556C26 42.6622 37.8378 54.5 52.4444 54.5C53.3 54.5 54 53.8 54 52.9444V47.5156C54 46.66 53.3 45.96 52.4444 45.96C50.5156 45.96 48.6333 45.6489 46.8911 45.0733C46.7356 45.0111 46.5644 44.9956 46.4089 44.9956C46.0044 44.9956 45.6156 45.1511 45.3044 45.4467L41.8822 48.8689C37.48 46.6133 33.8711 43.02 31.6311 38.6178L35.0533 35.1956C35.4889 34.76 35.6133 34.1533 35.4422 33.6089C34.8667 31.8667 34.5556 30 34.5556 28.0556C34.5556 27.2 33.8556 26.5 33 26.5Z" fill="white"/>
</svg>
