<svg width="27" height="21" viewBox="0 0 27 21" fill="none" xmlns="http://www.w3.org/2000/svg">
<path d="M18.957 12.3639H20.6263C20.674 12.3639 20.7853 12.3481 20.833 12.3481C21.1509 12.2849 21.4212 12.0006 21.4212 11.6058C21.4212 11.2267 21.1509 10.9424 20.833 10.8634C20.7853 10.8477 20.6899 10.8477 20.6263 10.8477H18.957V12.3639Z" fill="white"/>
<path d="M20.4357 1.89258C18.8459 1.89258 17.5423 3.17189 17.5423 4.76708V7.75214H21.628C21.7234 7.75214 21.8347 7.75214 21.9141 7.76793C22.8362 7.81531 23.5198 8.28913 23.5198 9.11042C23.5198 9.75797 23.0588 10.3108 22.2003 10.4213V10.4529C23.1383 10.5161 23.8537 11.0373 23.8537 11.8428C23.8537 12.7114 23.0588 13.28 22.0095 13.28H17.5264V19.1238H21.7711C23.3608 19.1238 24.6644 17.8445 24.6644 16.2493V1.89258H20.4357V1.89258Z" fill="white"/>
<path d="M21.2145 9.3004C21.2145 8.92135 20.9442 8.66864 20.6263 8.62126C20.5945 8.62126 20.515 8.60547 20.4673 8.60547H18.957V9.99534H20.4673C20.515 9.99534 20.6104 9.99534 20.6263 9.97954C20.9442 9.93216 21.2145 9.67946 21.2145 9.3004V9.3004Z" fill="white"/>
<path d="M4.44249 1.89453C2.85271 1.89453 1.5491 3.17384 1.5491 4.76903V11.8605C2.35988 12.2554 3.20246 12.5081 4.04504 12.5081C5.0466 12.5081 5.58712 11.9079 5.58712 11.0866V7.7383H8.06717V11.0708C8.06717 12.3659 7.25638 13.4241 4.50608 13.4241C2.83682 13.4241 1.5332 13.0609 1.5332 13.0609V19.1099H5.77789C7.36767 19.1099 8.67128 17.8306 8.67128 16.2354V1.89453H4.44249V1.89453Z" fill="white"/>
<path d="M12.4393 1.89453C10.8495 1.89453 9.5459 3.17384 9.5459 4.76903V8.52799C10.2772 7.91203 11.549 7.51718 13.5998 7.61194C14.6968 7.65933 15.8732 7.95941 15.8732 7.95941V9.17555C15.285 8.87546 14.5855 8.60696 13.6793 8.54379C12.1213 8.43323 11.1834 9.19134 11.1834 10.518C11.1834 11.8605 12.1213 12.6186 13.6793 12.4923C14.5855 12.4291 15.285 12.1448 15.8732 11.8605V13.0767C15.8732 13.0767 14.7127 13.3767 13.5998 13.4241C11.549 13.5189 10.2772 13.124 9.5459 12.5081V19.1415H13.7906C15.3804 19.1415 16.684 17.8622 16.684 16.267V1.89453H12.4393V1.89453Z" fill="white"/>
</svg>
