<svg width="37" height="36" viewBox="0 0 37 36" fill="none" xmlns="http://www.w3.org/2000/svg">
<g clip-path="url(#clip0_2152_4495)">
<path d="M18.1636 36C28.1047 36 36.1636 27.9411 36.1636 18C36.1636 8.05887 28.1047 0 18.1636 0C8.22245 0 0.163574 8.05887 0.163574 18C0.163574 27.9411 8.22245 36 18.1636 36Z" fill="#FFEB3B"/>
<path d="M15.7847 16.498L15.1363 18.3266H16.4311L15.7847 16.498ZM15.7847 16.498L15.1363 18.3266H16.4311L15.7847 16.498ZM18.1636 8.71094C11.9515 8.71094 6.91357 12.6546 6.91357 17.5227C6.91357 20.6687 9.01835 23.43 12.1868 24.9866C10.6138 30.3764 9.68926 30.7282 16.1652 26.1934C16.8272 26.2867 17.495 26.3332 18.1636 26.3325C24.3756 26.3325 29.4136 22.3868 29.4136 17.5207C29.4136 12.6546 24.3756 8.71094 18.1636 8.71094ZM11.9433 20.5971C10.8204 20.5971 11.4831 19.0446 11.2949 16.1523C10.8858 16.0828 9.64425 16.4305 9.64425 15.5203C9.64534 15.3524 9.7129 15.1919 9.83214 15.0738C9.95138 14.9557 10.1126 14.8897 10.2804 14.8903C12.6408 15.06 14.2404 14.4505 14.2404 15.5203C14.2404 16.4468 13.0458 16.0746 12.5918 16.1523C12.4036 19.0343 13.0643 20.5971 11.9433 20.5971ZM18.047 20.4989C17.0386 20.9571 17.014 19.9241 16.7727 19.4762H14.7947C14.5513 19.9343 14.5308 20.9652 13.5204 20.4989C12.7615 20.1512 13.997 18.3859 14.9195 15.5243C14.9785 15.3416 15.094 15.1823 15.2492 15.0692C15.4045 14.9562 15.5916 14.8953 15.7837 14.8953C15.9757 14.8953 16.1628 14.9562 16.3181 15.0692C16.4734 15.1823 16.5888 15.3416 16.6479 15.5243C17.5888 18.4412 18.8099 20.1512 18.047 20.4989ZM19.2456 20.4989C18.1595 20.4989 18.8202 19.0323 18.632 15.5284C18.632 14.6755 19.9574 14.6775 19.9574 15.5284V19.3207C20.5833 19.4046 21.9579 19.0118 21.9579 19.9118C21.9497 20.863 20.4729 20.3823 19.2456 20.503V20.4989ZM25.247 20.3127L23.7252 18.3082L23.5002 18.5332V19.9425C23.5002 20.0277 23.4833 20.1121 23.4506 20.1908C23.4178 20.2695 23.3699 20.3409 23.3094 20.401C23.2489 20.4611 23.1772 20.5086 23.0983 20.5409C23.0194 20.5731 22.9349 20.5894 22.8497 20.5889C21.7227 20.5889 22.3977 18.9648 22.2013 15.5325C22.2024 15.3613 22.2712 15.1974 22.3927 15.0767C22.5141 14.956 22.6784 14.8882 22.8497 14.8882C23.8295 14.8882 23.4061 16.275 23.4981 16.9193C25.339 15.1623 25.292 14.9762 25.6704 14.9762C26.192 14.9762 26.5111 15.6246 26.1633 15.9682L24.6845 17.4368L26.282 19.5396C26.8036 20.2207 25.7624 21 25.247 20.3168V20.3127ZM15.1363 18.3266H16.4311L15.7847 16.498L15.1363 18.3266ZM15.7847 16.498L15.1363 18.3266H16.4311L15.7847 16.498ZM15.7847 16.498L15.1363 18.3266H16.4311L15.7847 16.498Z" fill="#3E2723"/>
</g>
<defs>
<clipPath id="clip0_2152_4495">
<rect width="36" height="36" fill="white" transform="translate(0.163574)"/>
</clipPath>
</defs>
</svg>
