<svg width="45" height="45" viewBox="0 0 45 45" fill="none" xmlns="http://www.w3.org/2000/svg">
<g clip-path="url(#clip0_1767_2471)">
<g opacity="0.8">
<path d="M22.4731 44.8643C34.6043 44.8643 44.4731 34.9955 44.4731 22.8643C44.4731 10.7331 34.6043 0.864258 22.4731 0.864258C10.3419 0.864258 0.473145 10.7331 0.473145 22.8643C0.473145 34.9955 10.3419 44.8643 22.4731 44.8643ZM15.6769 21.5681L24.8436 12.4015C25.2011 12.044 25.6705 11.8643 26.1398 11.8643C26.6091 11.8643 27.0785 12.044 27.436 12.4015C28.1528 13.1183 28.1528 14.277 27.436 14.9938L19.5655 22.8643L27.4359 30.7348C28.1528 31.4516 28.1528 32.6103 27.4359 33.3271C26.7191 34.0439 25.5604 34.0439 24.8436 33.3271L15.6769 24.1604C14.9601 23.4436 14.9601 22.285 15.6769 21.5681Z" fill="#203F7E"/>
</g>
</g>
<defs>
<clipPath id="clip0_1767_2471">
<rect width="44" height="44" fill="white" transform="translate(44.4731 44.8643) rotate(-180)"/>
</clipPath>
</defs>
</svg>
