<svg width="37" height="36" viewBox="0 0 37 36" fill="none" xmlns="http://www.w3.org/2000/svg">
<path d="M18.1636 36C28.1047 36 36.1636 27.9411 36.1636 18C36.1636 8.05887 28.1047 0 18.1636 0C8.22245 0 0.163574 8.05887 0.163574 18C0.163574 27.9411 8.22245 36 18.1636 36Z" fill="#4CAF50"/>
<path d="M18.1556 8.5293C14.0996 8.5293 8.16357 10.8733 8.16357 16.6093C8.16357 22.8653 14.6116 24.3453 16.7956 24.7933C18.0596 25.0493 16.1796 27.6733 17.6756 27.4493C19.0916 27.2333 27.0916 22.4413 28.0516 17.4413C28.9956 12.5453 23.9076 8.5293 18.1556 8.5293V8.5293ZM14.4036 19.0253C14.3316 19.0973 14.2196 19.1373 14.0756 19.1373H12.1796C11.9876 19.1373 11.8516 19.0893 11.7716 18.9933C11.6916 18.8973 11.6436 18.7373 11.6436 18.5213V14.7053C11.6436 14.5053 11.6836 14.3533 11.7636 14.2493C11.8436 14.1453 11.9476 14.0973 12.0756 14.0973C12.2036 14.0973 12.3156 14.1453 12.3956 14.2493C12.4756 14.3533 12.5156 14.5053 12.5156 14.7053V18.3133H14.0756C14.2196 18.3133 14.3236 18.3533 14.4036 18.4333C14.4756 18.5133 14.5156 18.6093 14.5156 18.7293C14.5156 18.8493 14.4756 18.9533 14.4036 19.0253V19.0253ZM16.2036 18.6093C16.2036 18.8173 16.1636 18.9693 16.0836 19.0733C16.0036 19.1773 15.8996 19.2253 15.7636 19.2253C15.6356 19.2253 15.5316 19.1773 15.4516 19.0733C15.3716 18.9693 15.3316 18.8173 15.3316 18.6173V14.7133C15.3316 14.5133 15.3716 14.3613 15.4516 14.2573C15.5316 14.1533 15.6356 14.1053 15.7636 14.1053C15.8916 14.1053 16.0036 14.1533 16.0836 14.2573C16.1636 14.3613 16.2036 14.5133 16.2036 14.7133V18.6093ZM20.8036 18.5693C20.8036 19.0013 20.6436 19.2253 20.3316 19.2253C20.2516 19.2253 20.1796 19.2093 20.1236 19.1853C20.0596 19.1613 20.0036 19.1213 19.9476 19.0653C19.8916 19.0093 19.8436 18.9453 19.7956 18.8653C19.7476 18.7933 19.6996 18.7133 19.6516 18.6333L18.0116 15.7453V18.6493C18.0116 18.8413 17.9716 18.9853 17.8996 19.0813C17.8196 19.1773 17.7236 19.2253 17.6036 19.2253C17.4836 19.2253 17.3796 19.1773 17.3076 19.0813C17.2356 18.9853 17.1956 18.8413 17.1956 18.6573V14.8333C17.1956 14.6733 17.2116 14.5453 17.2436 14.4493C17.2836 14.3453 17.3396 14.2653 17.4276 14.2013C17.5156 14.1373 17.6036 14.1053 17.7076 14.1053C17.7876 14.1053 17.8516 14.1213 17.9076 14.1453C17.9636 14.1773 18.0116 14.2173 18.0516 14.2653C18.0916 14.3133 18.1396 14.3773 18.1796 14.4573C18.2196 14.5373 18.2676 14.6173 18.3156 14.7053L19.9956 17.6253V14.6733C19.9956 14.4813 20.0276 14.3373 20.0996 14.2413C20.1716 14.1453 20.2676 14.0973 20.3876 14.0973C20.5156 14.0973 20.6116 14.1453 20.6836 14.2413C20.7556 14.3373 20.7956 14.4813 20.7956 14.6733V18.5693H20.8036ZM24.8116 19.0253C24.7396 19.0973 24.6356 19.1373 24.4996 19.1373H22.2996C22.1076 19.1373 21.9716 19.0893 21.8916 18.9933C21.8116 18.8973 21.7636 18.7373 21.7636 18.5213V14.7933C21.7636 14.6493 21.7796 14.5293 21.8196 14.4413C21.8596 14.3533 21.9156 14.2813 21.9956 14.2413C22.0756 14.2013 22.1796 14.1773 22.2996 14.1773H24.4276C24.5636 14.1773 24.6676 14.2093 24.7396 14.2813C24.8116 14.3533 24.8436 14.4493 24.8436 14.5613C24.8436 14.6813 24.8116 14.7693 24.7396 14.8413C24.6676 14.9133 24.5716 14.9453 24.4276 14.9453H22.6356V16.1613H24.3636C24.4996 16.1613 24.5956 16.1933 24.6596 16.2653C24.7236 16.3373 24.7556 16.4253 24.7556 16.5373C24.7556 16.6493 24.7236 16.7453 24.6596 16.8093C24.5956 16.8813 24.4916 16.9133 24.3556 16.9133H22.6276V18.3213H24.4836C24.6196 18.3213 24.7236 18.3613 24.7956 18.4333C24.8676 18.5053 24.8996 18.6013 24.8996 18.7293C24.9156 18.8573 24.8756 18.9533 24.8116 19.0253V19.0253Z" fill="white"/>
</svg>
