<svg width="33" height="32" viewBox="0 0 33 32" fill="none" xmlns="http://www.w3.org/2000/svg">
<path d="M28.9546 5.18384C27.3472 4.63135 26.0588 3.33643 25.5088 1.71875C25.1594 0.690674 24.1963 0 23.1133 0H9.15259C8.06934 0 7.1062 0.690674 6.75684 1.71875C6.20679 3.33643 4.91943 4.63135 3.31177 5.18384C2.28857 5.53516 1.60107 6.50098 1.60107 7.58643V11.1179C1.60107 15.7263 2.98242 20.1638 5.59497 23.9502C7.98511 27.4148 11.2795 30.1262 15.1211 31.7913C15.4429 31.9307 15.7878 32 16.1328 32C16.478 32 16.823 31.9307 17.1443 31.7913C20.9863 30.1262 24.2808 27.4148 26.6709 23.9502C29.2834 20.1638 30.6648 15.7263 30.6648 11.1179V7.58643C30.6648 6.50098 29.9773 5.53516 28.9546 5.18384ZM22.3743 19.8088C22.3743 22.1272 20.488 24.0134 18.1699 24.0134H14.0959C11.7778 24.0134 9.89136 22.1272 9.89136 19.8088V14.4131C9.89136 13.168 10.9041 12.1555 12.1489 12.1555H12.2126V9.48535C12.2126 7.32397 13.9714 5.56519 16.1328 5.56519C18.2942 5.56519 20.053 7.32397 20.053 9.48535V12.1555H20.1167C21.3618 12.1555 22.3743 13.168 22.3743 14.4131V19.8088Z" fill="white"/>
<path d="M18.178 9.48462C18.178 8.35718 17.2605 7.43945 16.1328 7.43945C15.0054 7.43945 14.0879 8.35718 14.0879 9.48462V12.1548H18.178V9.48462Z" fill="white"/>
<path d="M20.1169 14.0312H12.1492C11.9385 14.0312 11.7666 14.2031 11.7666 14.4138V19.8096C11.7666 21.094 12.8118 22.1392 14.0962 22.1392H18.1702C19.4546 22.1392 20.4995 21.094 20.4995 19.8096V14.4138C20.4995 14.2031 20.3284 14.0312 20.1169 14.0312ZM17.0706 18.9709C17.0706 19.489 16.6506 19.9084 16.1331 19.9084C15.6157 19.9084 15.1956 19.489 15.1956 18.9709V17.1995C15.1956 16.6821 15.6157 16.262 16.1331 16.262C16.6506 16.262 17.0706 16.6821 17.0706 17.1995V18.9709Z" fill="white"/>
</svg>
