<svg width="176" height="32" viewBox="0 0 176 32" fill="none" xmlns="http://www.w3.org/2000/svg">
<path d="M86.0349 29.6061H85.1245L88.0027 23.1855H88.9747L91.8671 29.6061H90.8951L90.0179 27.5857H87.7751L88.0169 26.9122H89.7239L88.4579 24.0027L86.0349 29.6061Z" fill="white"/>
<path d="M93.6215 23.1855V29.6061H92.7443V23.1855H93.6215Z" fill="white"/>
<path d="M94.5509 24.8917H95.4376L96.3195 28.5869L97.614 24.8917H98.4059L99.7904 28.5869L100.587 24.8917H101.516L100.217 29.6061H99.4158L97.9886 26.0816L96.6325 29.6061H95.8122L94.5509 24.8917Z" fill="white"/>
<path d="M102.161 28.1828C102.161 27.216 102.835 26.7326 104.181 26.7326C104.614 26.7326 105.047 26.7625 105.48 26.8224V26.3779C105.48 25.8361 105.033 25.5652 104.139 25.5652C103.626 25.5652 103.102 25.64 102.564 25.7897V25.1162C103.102 24.9666 103.626 24.8917 104.139 24.8917C105.618 24.8917 106.358 25.3796 106.358 26.3554V29.6061H105.864L105.561 29.1392C105.065 29.4505 104.524 29.6061 103.939 29.6061C102.754 29.6061 102.161 29.1317 102.161 28.1828ZM104.181 27.4061C103.419 27.4061 103.038 27.6605 103.038 28.1694C103.038 28.6782 103.339 28.9327 103.939 28.9327C104.546 28.9327 105.06 28.78 105.48 28.4747V27.4959C105.047 27.436 104.614 27.4061 104.181 27.4061Z" fill="white"/>
<path d="M107.192 24.8917H108.145L109.553 28.5735L111.009 24.8917H111.939L109.871 29.7453C109.504 30.6014 108.954 31.1357 108.221 31.3482L107.884 30.7601C108.441 30.5296 108.845 30.1539 109.098 29.6331L107.192 24.8917Z" fill="white"/>
<path d="M112.716 29.3816V28.6633C113.301 28.8429 113.892 28.9327 114.49 28.9327C115.283 28.9327 115.68 28.7082 115.68 28.2592C115.68 27.8401 115.403 27.6306 114.85 27.6306H114.139C113.064 27.6306 112.526 27.1666 112.526 26.2387C112.526 25.3407 113.217 24.8917 114.599 24.8917C115.193 24.8917 115.782 24.9666 116.367 25.1162V25.8346C115.782 25.655 115.193 25.5652 114.599 25.5652C113.77 25.5652 113.356 25.7897 113.356 26.2387C113.356 26.6578 113.617 26.8673 114.139 26.8673H114.85C115.988 26.8673 116.557 27.3312 116.557 28.2592C116.557 29.1572 115.868 29.6061 114.49 29.6061C113.892 29.6061 113.301 29.5313 112.716 29.3816Z" fill="white"/>
<path d="M120.113 29.6061V24.8917H120.706L120.862 25.4934C121.299 25.0923 121.823 24.8917 122.437 24.8917V25.5832C121.842 25.5832 121.36 25.7822 120.99 26.1803V29.6061H120.113Z" fill="white"/>
<path d="M125.372 24.8917C126.788 24.8917 127.496 25.5547 127.496 26.8808C127.496 27.0693 127.482 27.2714 127.453 27.4869H123.959C123.959 28.4507 124.553 28.9327 125.741 28.9327C126.307 28.9327 126.81 28.8728 127.249 28.7531V29.4265C126.81 29.5463 126.276 29.6061 125.647 29.6061C123.936 29.6061 123.081 28.8024 123.081 27.1951C123.081 25.6595 123.845 24.8917 125.372 24.8917ZM123.959 26.7955H126.652C126.633 25.9693 126.206 25.5562 125.372 25.5562C124.487 25.5562 124.016 25.9693 123.959 26.7955Z" fill="white"/>
<path d="M128.629 29.3816V28.6633C129.214 28.8429 129.805 28.9327 130.403 28.9327C131.196 28.9327 131.593 28.7082 131.593 28.2592C131.593 27.8401 131.316 27.6306 130.763 27.6306H130.052C128.977 27.6306 128.439 27.1666 128.439 26.2387C128.439 25.3407 129.13 24.8917 130.512 24.8917C131.106 24.8917 131.695 24.9666 132.28 25.1162V25.8346C131.695 25.655 131.106 25.5652 130.512 25.5652C129.683 25.5652 129.269 25.7897 129.269 26.2387C129.269 26.6578 129.53 26.8673 130.052 26.8673H130.763C131.901 26.8673 132.47 27.3312 132.47 28.2592C132.47 29.1572 131.781 29.6061 130.403 29.6061C129.805 29.6061 129.214 29.5313 128.629 29.3816Z" fill="white"/>
<path d="M134.532 28.6453C134.877 28.8069 135.261 28.8878 135.685 28.8878C136.718 28.8878 137.235 28.2996 137.235 27.1232C137.235 26.0965 136.722 25.5832 135.694 25.5832C135.252 25.5832 134.864 25.6191 134.532 25.6909V28.6453ZM133.655 25.0848C134.316 24.9561 134.999 24.8917 135.704 24.8917C137.3 24.8917 138.098 25.6385 138.098 27.1322C138.098 28.7815 137.295 29.6061 135.689 29.6061C135.291 29.6061 134.905 29.5313 134.532 29.3816V31.3123H133.655V25.0848Z" fill="white"/>
<path d="M139.928 27.231C139.928 28.3654 140.426 28.9327 141.422 28.9327C142.418 28.9327 142.916 28.3654 142.916 27.231C142.916 26.1205 142.418 25.5652 141.422 25.5652C140.426 25.5652 139.928 26.1205 139.928 27.231ZM139.051 27.2489C139.051 25.6775 139.842 24.8917 141.422 24.8917C143.003 24.8917 143.793 25.6775 143.793 27.2489C143.793 28.8174 143.003 29.6017 141.422 29.6017C139.848 29.6017 139.058 28.8174 139.051 27.2489Z" fill="white"/>
<path d="M144.978 29.6061V24.8917H145.571L145.728 25.4934C146.236 25.0923 146.796 24.8917 147.406 24.8917C148.648 24.8917 149.27 25.4769 149.27 26.6473V29.6061H148.392V26.6338C148.392 25.9334 148.024 25.5832 147.288 25.5832C146.785 25.5832 146.308 25.7822 145.856 26.1803V29.6061H144.978Z" fill="white"/>
<path d="M150.649 29.3816V28.6633C151.234 28.8429 151.825 28.9327 152.423 28.9327C153.216 28.9327 153.613 28.7082 153.613 28.2592C153.613 27.8401 153.336 27.6306 152.783 27.6306H152.072C150.997 27.6306 150.46 27.1666 150.46 26.2387C150.46 25.3407 151.15 24.8917 152.532 24.8917C153.126 24.8917 153.716 24.9666 154.3 25.1162V25.8346C153.716 25.655 153.126 25.5652 152.532 25.5652C151.704 25.5652 151.289 25.7897 151.289 26.2387C151.289 26.6578 151.55 26.8673 152.072 26.8673H152.783C153.921 26.8673 154.49 27.3312 154.49 28.2592C154.49 29.1572 153.801 29.6061 152.423 29.6061C151.825 29.6061 151.234 29.5313 150.649 29.3816Z" fill="white"/>
<path d="M156.648 24.8917V29.6061H155.77V24.8917H156.648ZM156.648 23.1855V23.9713H155.77V23.1855H156.648Z" fill="white"/>
<path d="M159.047 28.7845C159.334 28.8713 159.684 28.9147 160.095 28.9147C161.201 28.9147 161.754 28.3175 161.754 27.1232C161.754 26.1145 161.253 25.6101 160.251 25.6101C159.796 25.6101 159.395 25.6909 159.047 25.8526V28.7845ZM158.17 23.1855H159.047V25.1162C159.423 24.9666 159.826 24.8917 160.256 24.8917C161.83 24.8917 162.617 25.646 162.617 27.1546C162.617 28.789 161.791 29.6061 160.137 29.6061C159.423 29.6061 158.767 29.5418 158.17 29.4131V23.1855Z" fill="white"/>
<path d="M164.727 23.1855V29.6061H163.85V23.1855H164.727Z" fill="white"/>
<path d="M168.255 24.8917C169.671 24.8917 170.379 25.5547 170.379 26.8808C170.379 27.0693 170.365 27.2714 170.337 27.4869H166.842C166.842 28.4507 167.436 28.9327 168.625 28.9327C169.191 28.9327 169.693 28.8728 170.133 28.7531V29.4265C169.693 29.5463 169.159 29.6061 168.53 29.6061C166.82 29.6061 165.965 28.8024 165.965 27.1951C165.965 25.6595 166.728 24.8917 168.255 24.8917ZM166.842 26.7955H169.535C169.516 25.9693 169.09 25.5562 168.255 25.5562C167.37 25.5562 166.899 25.9693 166.842 26.7955Z" fill="white"/>
<path fill-rule="evenodd" clip-rule="evenodd" d="M165.328 10.4078H172.722C172.67 8.02683 171.498 6.83635 169.207 6.83635C166.772 6.83635 165.479 8.02683 165.328 10.4078ZM169.207 4.92383C173.095 4.92383 175.039 6.83518 175.039 10.6579C175.036 11.2409 174.997 11.8232 174.922 12.4013H165.328C165.328 15.1815 166.96 16.5704 170.224 16.568C171.621 16.5881 173.014 16.4139 174.362 16.0503V17.9945C172.926 18.3682 171.445 18.5424 169.962 18.5123C165.264 18.5123 162.916 16.1959 162.918 11.5631C162.918 7.13691 165.015 4.92383 169.207 4.92383Z" fill="white"/>
<path fill-rule="evenodd" clip-rule="evenodd" d="M140.07 18.5123V4.92383H142.259V6.64263C143.563 5.5085 144.842 4.92383 146.383 4.92383C148.367 4.92383 149.714 5.5402 150.436 6.78704C151.917 5.5402 153.423 4.92383 154.954 4.92383C158.093 4.92383 159.666 6.63911 159.666 10.0873V18.5123H157.26V9.95345C157.26 7.92469 156.395 6.91384 154.681 6.91384C153.398 6.91384 152.196 7.50086 151.074 8.67491V18.5123H148.665V9.99219C148.665 7.93761 147.815 6.91149 146.114 6.91384C144.757 6.91384 143.549 7.50204 142.479 8.67491V18.5123H140.07Z" fill="white"/>
<path d="M135.904 0H133.495V2.26474H135.904V0Z" fill="white"/>
<path d="M135.904 4.92383H133.495V18.5123H135.904V4.92383Z" fill="white"/>
<path fill-rule="evenodd" clip-rule="evenodd" d="M124.446 2.72266H126.848V4.924H130.175V6.86118H126.848V14.6698C126.848 15.9377 127.404 16.5682 128.506 16.5682H130.175V18.5124H127.879C125.585 18.5124 124.441 17.2914 124.446 14.8494V2.72266Z" fill="white"/>
<path d="M120.276 0H117.867V2.26474H120.276V0Z" fill="#F26921"/>
<path d="M120.276 4.92383H117.867V18.5123H120.276V4.92383Z" fill="#F26921"/>
<path fill-rule="evenodd" clip-rule="evenodd" d="M101.924 18.5123V4.92383H104.191V6.6532C105.608 5.50146 106.912 4.92383 108.588 4.92383C111.996 4.92383 113.702 6.60976 113.704 9.98162V18.5123H111.295V9.93231C111.295 7.91295 110.284 6.90445 108.262 6.90679C106.883 6.90679 105.571 7.4809 104.326 8.62912V18.4911L101.924 18.5123Z" fill="#F26921"/>
<path fill-rule="evenodd" clip-rule="evenodd" d="M85.644 11.718C85.644 7.18622 87.8147 4.92148 92.1559 4.92383C96.4971 4.92618 98.6666 7.19091 98.6642 11.718C98.6642 16.2358 96.4948 18.4958 92.1559 18.4982C87.817 18.5005 85.6464 16.2405 85.644 11.718ZM88.0532 11.6652C88.0532 14.9338 89.4208 16.568 92.1559 16.568C94.891 16.568 96.2586 14.9338 96.2586 11.6652C96.2586 8.46241 94.891 6.86101 92.1559 6.86101C89.4208 6.86101 88.0532 8.46241 88.0532 11.6652Z" fill="#F26921"/>
<path fill-rule="evenodd" clip-rule="evenodd" d="M18.3303 0.617473C18.5207 0.23903 18.9099 0 19.3355 0H48.9909C49.3981 0 49.7735 0.21897 49.9721 0.572388C51.7857 3.79921 53.5993 7.02589 55.4128 10.2508L70.1467 10.1787C70.2078 10.1784 70.2689 10.1831 70.3292 10.1926C71.6037 10.3947 72.8568 10.8058 73.8462 11.6567C74.8637 12.5319 75.4864 13.7717 75.6679 15.3948C75.6721 15.4325 75.6744 15.4705 75.6748 15.5085C75.6875 16.9528 75.6689 18.3956 75.6506 19.8246L75.6505 19.8303C75.6321 21.2652 75.6138 22.6863 75.6264 24.1055C75.629 24.4035 75.5117 24.6903 75.3006 24.9019C75.0896 25.1136 74.8022 25.2327 74.5024 25.2327H70.9099C70.4025 25.2327 69.958 24.8947 69.8251 24.4079C69.1272 21.8509 67.4229 19.5397 64.9865 19.1265C63.9476 19.1376 62.9332 19.1299 61.9306 19.1224L61.9254 19.1223C60.9098 19.1146 59.9061 19.1071 58.8814 19.1183C58.1607 19.2202 57.4523 19.4347 56.8234 19.8951C56.2021 20.35 55.5747 21.1062 55.1164 22.4323C55.0476 23.0232 55.0316 23.6188 55.015 24.2721L55.0144 24.2959C54.9979 24.9474 54.9799 25.6585 54.8906 26.386C54.8667 27.1573 54.6209 27.8965 54.0118 28.4868C53.4244 29.0561 52.6136 29.3731 51.7002 29.5613C51.6174 29.5784 51.5329 29.5861 51.4483 29.5843C47.302 29.4969 43.203 29.5185 39.0868 29.5402L39.0644 29.5403C34.9454 29.562 30.8093 29.5836 26.6206 29.4943C26.0152 29.4814 25.529 28.9942 25.5207 28.3923C25.4747 25.0252 24.6047 22.7289 23.3182 21.2795C22.0477 19.8481 20.2555 19.1116 18.0672 19.0773C15.3989 19.0729 13.6491 19.8068 12.4965 20.9866C11.3201 22.1907 10.6112 24.0162 10.3648 26.4892C10.3063 27.0767 9.79816 27.5176 9.2047 27.4957C7.86891 27.4466 6.54784 27.4562 5.19808 27.4661L5.18643 27.4662C3.84818 27.4761 2.48142 27.4862 1.09163 27.4351C0.483738 27.4127 0.00404969 26.9136 0.00920102 26.3089C0.0217563 24.835 0.0149653 23.2993 0.00811911 21.7546L0.00810285 21.751C0.00127462 20.2103 -0.00559336 18.6607 0.00709591 17.1701C0.00813717 17.0477 0.0293742 16.9264 0.0699596 16.8109C0.820707 14.6748 1.8486 13.2495 3.09869 12.2927C4.33608 11.3456 5.69664 10.932 6.95908 10.6584C7.03333 10.6423 7.10904 10.6337 7.18503 10.6328C9.23381 10.6083 11.2808 10.5856 13.3272 10.5629C14.9948 7.24718 16.6626 3.93141 18.3303 0.617473ZM20.0301 2.2349C18.3654 5.54286 16.7008 8.85259 15.0362 12.1624L15.0311 12.1725C14.8427 12.5471 14.4594 12.7855 14.0382 12.7901C11.8017 12.8148 9.56587 12.8395 7.32808 12.8662C6.23402 13.1106 5.29101 13.4352 4.47014 14.0635C3.66117 14.6827 2.88164 15.667 2.25359 17.3773C2.24311 18.7944 2.24961 20.2657 2.25617 21.7448L2.25619 21.749C2.26135 22.9143 2.26654 24.0844 2.26326 25.2299C3.23193 25.2456 4.19906 25.2385 5.18139 25.2313L5.19304 25.2312C6.19994 25.2238 7.22299 25.2162 8.25984 25.2347C8.62403 22.9242 9.43184 20.9158 10.8839 19.4295C12.5714 17.7021 14.9749 16.8357 18.0795 16.8425C18.0812 16.8425 18.083 16.8425 18.0847 16.8425C18.0878 16.8425 18.0909 16.8425 18.0939 16.8426C20.7997 16.883 23.2404 17.814 25.0039 19.8008C26.579 21.5755 27.5184 24.0847 27.7266 27.2802C31.5205 27.3449 35.2793 27.3253 39.0525 27.3055L39.0889 27.3053C43.1522 27.2839 47.2324 27.2624 51.3633 27.3471C52.0027 27.2023 52.3031 27.0216 52.4424 26.8866C52.5511 26.7813 52.6392 26.6325 52.6443 26.2873C52.6449 26.2457 52.6479 26.2041 52.6532 26.1629C52.7332 25.5366 52.7501 24.9086 52.7677 24.2157L52.7683 24.192C52.7852 23.523 52.8038 22.7911 52.8994 22.0433C52.9085 21.9722 52.9244 21.9022 52.947 21.8341C53.532 20.0706 54.4249 18.8755 55.4904 18.0955C56.5453 17.3232 57.682 17.0219 58.6501 16.894C58.6948 16.8881 58.7397 16.8849 58.7848 16.8844C59.8574 16.8717 60.9036 16.8796 61.9373 16.8874L61.9425 16.8875C62.9811 16.8953 64.0073 16.9031 65.0564 16.8907C65.1171 16.8899 65.1778 16.8941 65.2379 16.9032C68.6668 17.419 70.775 20.2699 71.7369 22.9978H73.3742C73.3753 21.9295 73.389 20.8641 73.4026 19.8064L73.4026 19.8017C73.4208 18.3867 73.4388 16.9857 73.4273 15.5873C73.2908 14.4586 72.8869 13.7869 72.3753 13.3469C71.8425 12.8886 71.0806 12.5852 70.0633 12.4141L54.7608 12.4889C54.3517 12.4909 53.9738 12.2718 53.7742 11.9168C51.9599 8.69072 50.1456 5.4628 48.3313 2.2349H20.0301Z" fill="white"/>
<path fill-rule="evenodd" clip-rule="evenodd" d="M21.3364 4.67074C21.5142 4.26127 21.9199 3.99609 22.3685 3.99609H30.3321C30.9529 3.99609 31.4562 4.49639 31.4562 5.11354V11.8254C31.4562 12.1231 31.3366 12.4085 31.1242 12.6183C30.9117 12.8281 30.6237 12.9449 30.3243 12.9428L19.4795 12.8675C19.1025 12.8649 18.752 12.6746 18.546 12.3608C18.34 12.047 18.3059 11.6514 18.4553 11.3073L21.3364 4.67074ZM23.1076 6.23099L21.1916 10.6445L29.2081 10.7001V6.23099H23.1076Z" fill="white"/>
<path fill-rule="evenodd" clip-rule="evenodd" d="M34.3986 4.38975C34.6113 4.17943 34.8996 4.06232 35.1996 4.06448L46.2085 4.14399C46.6296 4.14703 47.0137 4.3838 47.2036 4.75744L50.5099 11.2622C50.6858 11.6083 50.6686 12.0204 50.4645 12.3508C50.2604 12.6813 49.8985 12.883 49.5085 12.8836L35.208 12.9066C34.5874 12.9076 34.0835 12.4085 34.0821 11.7916L34.0674 5.18438C34.0667 4.88618 34.186 4.60008 34.3986 4.38975ZM36.318 6.30752L36.3277 10.6699L47.6808 10.6516L45.5064 6.37387L36.318 6.30752Z" fill="white"/>
<path fill-rule="evenodd" clip-rule="evenodd" d="M29.3662 24.1925C29.3679 23.5753 29.8726 23.0764 30.4934 23.0781L49.3397 23.1304C49.9605 23.1322 50.4623 23.6339 50.4606 24.251C50.4589 24.8681 49.9542 25.367 49.3334 25.3653L30.4871 25.313C29.8663 25.3113 29.3645 24.8096 29.3662 24.1925Z" fill="white"/>
<path fill-rule="evenodd" clip-rule="evenodd" d="M34.1143 15.7893C34.1143 15.1722 34.6175 14.6719 35.2383 14.6719H37.9679C38.5887 14.6719 39.0919 15.1722 39.0919 15.7893C39.0919 16.4065 38.5887 16.9068 37.9679 16.9068H35.2383C34.6175 16.9068 34.1143 16.4065 34.1143 15.7893Z" fill="white"/>
<path fill-rule="evenodd" clip-rule="evenodd" d="M1.284 16.2302C1.29842 15.6132 1.81323 15.1246 2.43385 15.139L5.69381 15.2143C6.31443 15.2286 6.80585 15.7404 6.79143 16.3574C6.777 16.9744 6.2622 17.4629 5.64158 17.4486L2.38162 17.3733C1.761 17.3589 1.26958 16.8471 1.284 16.2302Z" fill="white"/>
<path fill-rule="evenodd" clip-rule="evenodd" d="M12.0889 26.4347C12.0889 23.3675 14.602 20.8691 17.6872 20.8691C20.7724 20.8691 23.2855 23.3675 23.2855 26.4347C23.2855 29.5018 20.7724 32.0002 17.6872 32.0002C14.602 32.0002 12.0889 29.5018 12.0889 26.4347ZM17.6872 23.104C15.8435 23.104 14.3369 24.6018 14.3369 26.4347C14.3369 28.2675 15.8435 29.7653 17.6872 29.7653C19.5308 29.7653 21.0375 28.2675 21.0375 26.4347C21.0375 24.6018 19.5308 23.104 17.6872 23.104Z" fill="white"/>
<path fill-rule="evenodd" clip-rule="evenodd" d="M56.9097 26.4304C56.9099 23.3634 59.4229 20.8652 62.508 20.8652C65.5932 20.8652 68.1063 23.3636 68.1063 26.4308C68.1063 29.4979 65.5932 31.9963 62.508 31.9963C59.4215 31.9963 56.9076 29.4988 56.9097 26.4308M62.508 23.1001C60.6643 23.1001 59.1577 24.5979 59.1577 26.4308L59.1577 26.4317C59.1562 28.2633 60.6617 29.7614 62.508 29.7614C64.3517 29.7614 65.8583 28.2636 65.8583 26.4308C65.8583 24.5979 64.3517 23.1001 62.508 23.1001Z" fill="white"/>
<path fill-rule="evenodd" clip-rule="evenodd" d="M69.6772 15.5628C69.6772 14.9456 70.1805 14.4453 70.8013 14.4453H73.5309C74.1517 14.4453 74.6549 14.9456 74.6549 15.5628C74.6549 16.1799 74.1517 16.6802 73.5309 16.6802H70.8013C70.1805 16.6802 69.6772 16.1799 69.6772 15.5628Z" fill="white"/>
<path fill-rule="evenodd" clip-rule="evenodd" d="M21.3364 4.67074C21.5142 4.26127 21.9199 3.99609 22.3685 3.99609H30.3321C30.9529 3.99609 31.4562 4.49639 31.4562 5.11354V11.8254C31.4562 12.1231 31.3366 12.4085 31.1242 12.6183C30.9117 12.8281 30.6237 12.9449 30.3243 12.9428L19.4795 12.8675C19.1025 12.8649 18.752 12.6746 18.546 12.3608C18.34 12.047 18.3059 11.6514 18.4553 11.3073L21.3364 4.67074ZM23.1076 6.23099L21.1916 10.6445L29.2081 10.7001V6.23099H23.1076Z" fill="white"/>
<path fill-rule="evenodd" clip-rule="evenodd" d="M34.3986 4.38975C34.6113 4.17943 34.8996 4.06232 35.1996 4.06448L46.2085 4.14399C46.6296 4.14703 47.0137 4.3838 47.2036 4.75744L50.5099 11.2622C50.6858 11.6083 50.6686 12.0204 50.4645 12.3508C50.2604 12.6813 49.8985 12.883 49.5085 12.8836L35.208 12.9066C34.5874 12.9076 34.0835 12.4085 34.0821 11.7916L34.0674 5.18438C34.0667 4.88618 34.186 4.60008 34.3986 4.38975ZM36.318 6.30752L36.3277 10.6699L47.6808 10.6516L45.5064 6.37387L36.318 6.30752Z" fill="white"/>
<path fill-rule="evenodd" clip-rule="evenodd" d="M29.3662 24.1925C29.3679 23.5753 29.8726 23.0764 30.4934 23.0781L49.3397 23.1304C49.9605 23.1322 50.4623 23.6339 50.4606 24.251C50.4589 24.8681 49.9542 25.367 49.3334 25.3653L30.4871 25.313C29.8663 25.3113 29.3645 24.8096 29.3662 24.1925Z" fill="white"/>
<path fill-rule="evenodd" clip-rule="evenodd" d="M34.1143 15.7893C34.1143 15.1722 34.6175 14.6719 35.2383 14.6719H37.9679C38.5887 14.6719 39.0919 15.1722 39.0919 15.7893C39.0919 16.4065 38.5887 16.9068 37.9679 16.9068H35.2383C34.6175 16.9068 34.1143 16.4065 34.1143 15.7893Z" fill="white"/>
<path fill-rule="evenodd" clip-rule="evenodd" d="M1.284 16.2302C1.29842 15.6132 1.81323 15.1246 2.43385 15.139L5.69381 15.2143C6.31443 15.2286 6.80585 15.7404 6.79143 16.3574C6.777 16.9744 6.2622 17.4629 5.64158 17.4486L2.38162 17.3733C1.761 17.3589 1.26958 16.8471 1.284 16.2302Z" fill="white"/>
<path fill-rule="evenodd" clip-rule="evenodd" d="M12.0889 26.4347C12.0889 23.3675 14.602 20.8691 17.6872 20.8691C20.7724 20.8691 23.2855 23.3675 23.2855 26.4347C23.2855 29.5018 20.7724 32.0002 17.6872 32.0002C14.602 32.0002 12.0889 29.5018 12.0889 26.4347ZM17.6872 23.104C15.8435 23.104 14.3369 24.6018 14.3369 26.4347C14.3369 28.2675 15.8435 29.7653 17.6872 29.7653C19.5308 29.7653 21.0375 28.2675 21.0375 26.4347C21.0375 24.6018 19.5308 23.104 17.6872 23.104Z" fill="white"/>
<path fill-rule="evenodd" clip-rule="evenodd" d="M56.9097 26.4304C56.9099 23.3634 59.4229 20.8652 62.508 20.8652C65.5932 20.8652 68.1063 23.3636 68.1063 26.4308C68.1063 29.4979 65.5932 31.9963 62.508 31.9963C59.4215 31.9963 56.9076 29.4988 56.9097 26.4308M62.508 23.1001C60.6643 23.1001 59.1577 24.5979 59.1577 26.4308L59.1577 26.4317C59.1562 28.2633 60.6617 29.7614 62.508 29.7614C64.3517 29.7614 65.8583 28.2636 65.8583 26.4308C65.8583 24.5979 64.3517 23.1001 62.508 23.1001Z" fill="white"/>
<path fill-rule="evenodd" clip-rule="evenodd" d="M69.6772 15.5628C69.6772 14.9456 70.1805 14.4453 70.8013 14.4453H73.5309C74.1517 14.4453 74.6549 14.9456 74.6549 15.5628C74.6549 16.1799 74.1517 16.6802 73.5309 16.6802H70.8013C70.1805 16.6802 69.6772 16.1799 69.6772 15.5628Z" fill="white"/>
</svg>
