<svg width="31" height="23" viewBox="0 0 31 23" fill="none" xmlns="http://www.w3.org/2000/svg">
<g clip-path="url(#clip0_2152_4639)">
<path opacity="0.8" d="M19.1497 4.61328H11.0312V19.012H19.1497V4.61328Z" fill="#DFE4EA"/>
<path d="M11.5717 11.8128C11.5717 8.88741 12.9648 6.29102 15.1025 4.61345C13.5293 3.39231 11.5447 2.6543 9.37996 2.6543C4.25186 2.6543 0.102539 6.75043 0.102539 11.8128C0.102539 16.8752 4.25186 20.9713 9.37996 20.9713C11.5447 20.9713 13.5293 20.2333 15.1025 19.0122C12.9618 17.3583 11.5717 14.7382 11.5717 11.8128Z" fill="white"/>
<path d="M30.1025 11.8128C30.1025 16.8752 25.9532 20.9713 20.8251 20.9713C18.6604 20.9713 16.6758 20.2333 15.1025 19.0122C17.2673 17.3316 18.6334 14.7382 18.6334 11.8128C18.6334 8.88741 17.2402 6.29102 15.1025 4.61345C16.6728 3.39231 18.6574 2.6543 20.8221 2.6543C25.9532 2.6543 30.1025 6.77711 30.1025 11.8128Z" fill="#DFE4EA"/>
</g>
<defs>
<clipPath id="clip0_2152_4639">
<rect width="30" height="23" fill="white" transform="translate(0.102539)"/>
</clipPath>
</defs>
</svg>
