<svg width="37" height="36" viewBox="0 0 37 36" fill="none" xmlns="http://www.w3.org/2000/svg">
<g clip-path="url(#clip0_2152_4462)">
<path d="M18.1636 36C28.1047 36 36.1636 27.9411 36.1636 18C36.1636 8.05887 28.1047 0 18.1636 0C8.22245 0 0.163574 8.05887 0.163574 18C0.163574 27.9411 8.22245 36 18.1636 36Z" fill="#0084FF"/>
<path d="M29.4136 17.5757C29.4136 23.3296 24.3756 27.9932 18.1636 27.9932C17.073 27.9939 15.9872 27.8474 14.9358 27.5575L11.1047 29.6582V25.6859C8.54994 23.7775 6.91357 20.8628 6.91357 17.5757C6.91357 11.8218 11.9515 7.1582 18.1636 7.1582C24.3756 7.1582 29.4136 11.8239 29.4136 17.5757V17.5757Z" fill="white"/>
<path d="M25.4312 14.6582L19.2805 21.1832L16.4169 18.1293L10.8267 21.1852L16.9773 14.6582L19.9126 17.7121L25.4312 14.6582Z" fill="#2196F3"/>
</g>
<defs>
<clipPath id="clip0_2152_4462">
<rect width="36" height="36" fill="white" transform="translate(0.163574)"/>
</clipPath>
</defs>
</svg>
