<svg width="71" height="21" viewBox="0 0 71 21" fill="none" xmlns="http://www.w3.org/2000/svg">
<path d="M14.1086 2.7826C13.8529 2.26979 13.4486 1.84684 12.9466 1.52924C12.423 1.20853 11.8048 0.98389 11.0983 0.850652C10.3795 0.720512 9.54905 0.661639 8.58695 0.652344L4.14517 0.655444C3.68349 0.661641 3.2311 1.02107 3.12265 1.46726L0.13409 14.4843C0.02564 14.9243 0.315355 15.293 0.77704 15.293H2.9042C3.36588 15.293 3.82292 14.9351 3.92517 14.4843L4.65488 11.3238C4.75249 10.8838 5.20798 10.5166 5.67431 10.5166H6.28317C8.88441 10.5135 10.8985 9.9821 12.3455 8.91774C13.8003 7.85184 14.5176 6.44355 14.5176 4.69906C14.516 3.93526 14.3905 3.29386 14.1086 2.7826ZM9.52117 7.03537C8.87822 7.50635 7.98428 7.74184 6.83162 7.74184H6.31106C5.84783 7.74184 5.56431 7.37621 5.66501 6.93002L6.30486 4.16611C6.39472 3.72301 6.86106 3.35583 7.31809 3.35893L8.01527 3.35428C8.82864 3.35428 9.4499 3.49527 9.86511 3.76794C10.2757 4.03752 10.4817 4.46667 10.4786 5.03525C10.491 5.89975 10.161 6.56439 9.52117 7.03537Z" fill="white"/>
<path d="M24.3657 4.64147C23.5632 4.18908 22.2959 3.96289 20.5638 3.96289C19.7071 3.96289 18.8534 4.02951 17.9905 4.16275C17.3537 4.26035 17.2917 4.27894 16.8998 4.36415C16.091 4.54077 15.964 5.34794 15.964 5.34794L15.7037 6.4185C15.5565 7.10173 15.9501 7.07539 16.1143 7.01807C16.4675 6.91272 16.6643 6.80427 17.3862 6.64314C18.0757 6.48666 18.8023 6.36892 19.3786 6.37666C20.2292 6.37666 20.8799 6.46652 21.3137 6.64934C21.7413 6.83525 21.9551 7.1544 21.9551 7.61609L21.9179 7.91665L21.6111 8.10566C20.4042 8.18158 19.532 8.29312 18.4738 8.4465C17.4389 8.59058 16.531 8.84312 15.7765 9.18861C14.9663 9.54494 14.3651 10.0237 13.9453 10.6325C13.5394 11.2445 13.3364 11.9866 13.3364 12.8573C13.3364 13.6769 13.6308 14.3539 14.2025 14.8776C14.7773 15.3919 15.5364 15.6429 16.4443 15.6429C17.0191 15.6398 17.4637 15.5949 17.7798 15.519L18.81 15.1642L19.6823 14.6808L20.4848 14.1509L20.4956 14.1664L20.4151 14.5073L20.4104 14.5212V14.5243C20.3237 14.9395 20.5747 15.2804 20.979 15.3207L20.9868 15.3299H21.0239H22.6553H22.9621L22.99 15.3176C23.4145 15.268 23.8126 14.9271 23.9056 14.5212L25.4564 7.8082L25.537 7.2613L25.5742 6.74849C25.5804 5.79724 25.1698 5.09231 24.3657 4.64147ZM20.9356 12.1896L20.6041 12.6265L19.7675 13.0587C19.374 13.2183 19.0006 13.2988 18.6551 13.2988C18.1314 13.2988 17.7209 13.2229 17.4436 13.068L17.033 12.2701C17.033 11.8379 17.1322 11.4955 17.3444 11.2321L18.2461 10.6186C18.6319 10.4885 19.1028 10.3785 19.6482 10.3025C20.1347 10.2421 21.0952 10.1321 21.2207 10.129L21.3679 10.3877C21.3384 10.5349 21.0658 11.6752 20.9356 12.1896Z" fill="white"/>
<path d="M63.0005 4.64693C62.1933 4.19454 60.9276 3.9668 59.2001 3.9668C58.3434 3.9668 57.4882 4.03342 56.6283 4.1713C55.99 4.26426 55.9265 4.2844 55.533 4.36806C54.7258 4.54313 54.6003 5.3534 54.6003 5.3534L54.34 6.42241C54.1944 7.10564 54.5786 7.07465 54.7583 7.02197C55.1131 6.91662 55.3037 6.81282 56.0195 6.6455C56.7058 6.49057 57.4386 6.37593 58.0165 6.37903C58.8639 6.37903 59.5146 6.47043 59.9469 6.65325C60.3776 6.83916 60.5883 7.16141 60.5883 7.61845L60.5557 7.91746L60.2521 8.11112C59.0328 8.18394 58.159 8.29548 57.1117 8.44886C56.0799 8.59294 55.1689 8.84393 54.4129 9.19096C53.6057 9.54885 52.9968 10.0276 52.5816 10.638C52.171 11.25 51.9712 11.9905 51.9712 12.8535C51.9712 13.6792 52.2625 14.3563 52.8419 14.8768C53.4198 15.3896 54.1712 15.6468 55.079 15.6468C55.6507 15.6406 56.0954 15.6034 56.413 15.5213L57.4401 15.1712L58.3201 14.6878L59.1165 14.1518L59.1304 14.1688L59.0576 14.5127L59.0498 14.5189L59.0529 14.5251C58.9569 14.9403 59.2094 15.2843 59.6184 15.3215L59.6215 15.3292H59.6587C59.9267 15.3292 60.8532 15.3292 61.2947 15.3292H61.5953L61.6278 15.3184C62.0477 15.2672 62.4443 14.9264 62.5326 14.5158L64.0881 7.81211L64.1702 7.26211L64.2151 6.74775C64.2167 5.79959 63.8108 5.09777 63.0005 4.64693ZM59.5781 12.195L59.2327 12.6366L58.4038 13.0657C58.0103 13.2237 57.6354 13.3058 57.2961 13.3058C56.7554 13.3058 56.3557 13.2284 56.0861 13.0735L55.6709 12.2787C55.6709 11.8449 55.7716 11.5056 55.9745 11.2376C56.1806 10.985 56.4951 10.7774 56.8855 10.6256C57.2666 10.4955 57.7376 10.3901 58.286 10.3111C58.7694 10.2507 59.7269 10.1376 59.8508 10.136L60.0011 10.3948C59.9794 10.5419 59.7052 11.6776 59.5781 12.195Z" fill="white"/>
<path d="M52.7377 2.83298C52.4712 2.31707 52.0715 1.90031 51.5664 1.57496C51.049 1.25271 50.4354 1.02652 49.7181 0.89638C49.0132 0.770889 48.1719 0.702721 47.216 0.701172L42.7681 0.704269C42.3048 0.712015 41.8602 1.07145 41.7533 1.51299L38.7616 14.5362C38.6532 14.9778 38.9506 15.3434 39.403 15.3434L41.5333 15.3403C41.9857 15.3434 42.4489 14.9809 42.5558 14.5347L43.2762 11.3726C43.3816 10.9326 43.8386 10.5623 44.2987 10.5654H44.9076C47.512 10.5654 49.5307 10.0294 50.9839 8.96812C52.4201 7.89447 53.1467 6.48927 53.1467 4.74324C53.1389 3.98254 53.0072 3.33959 52.7377 2.83298ZM48.1503 7.09195C47.5089 7.55363 46.6134 7.78912 45.4669 7.78912H44.9371C44.48 7.79377 44.1841 7.42194 44.2864 6.97885L44.9309 4.21958C45.0254 3.77804 45.487 3.40776 45.9472 3.41241L46.6366 3.40776C47.4546 3.41241 48.0681 3.54719 48.4864 3.81987C48.9032 4.09254 49.1 4.52014 49.1046 5.08718C49.1093 5.95168 48.7886 6.61787 48.1503 7.09195Z" fill="white"/>
<path d="M70.9805 1.61591C71.0781 1.17127 70.7992 0.810288 70.3422 0.816485H68.4366C68.0461 0.816485 67.6944 1.1062 67.5225 1.46253L67.4171 1.62676L67.3211 2.04816L64.6579 14.1542L64.5711 14.5261L64.5742 14.5353C64.4859 14.9335 64.7307 15.2341 65.1087 15.2914L65.1412 15.3363H67.1197C67.507 15.3363 67.8711 15.042 68.0368 14.6794L68.1391 14.5245L70.9867 1.61746L70.9805 1.61591Z" fill="white"/>
<path d="M38.4176 3.99432C37.9141 4.00051 35.8675 3.99432 35.8675 3.99432C35.4089 3.99432 34.8202 4.36459 34.5289 4.80614C34.5289 4.80614 31.4831 10.0334 31.1872 10.5586L30.8339 10.554L29.8858 4.84177C29.7804 4.39248 29.311 4.00826 28.7269 4.00826L26.8213 4.01136C26.3627 4.01136 26.0807 4.37699 26.1845 4.82318C26.1845 4.82318 27.6316 13.0576 27.9213 14.9957C28.0561 16.0647 27.9042 16.2553 27.9042 16.2553L26.0203 19.5367C25.7414 19.9829 25.8917 20.347 26.3488 20.347L28.5518 20.3439C29.0104 20.3439 29.6131 19.9829 29.8858 19.5351L38.3603 5.2012C38.3603 5.2012 39.1752 3.97727 38.4176 3.99432Z" fill="white"/>
</svg>
