<svg width="46" height="46" viewBox="0 0 46 46" fill="none" xmlns="http://www.w3.org/2000/svg">
<g clip-path="url(#clip0_2104_37165)">
<path d="M44.7602 31.5573L33.2443 26.4314C32.7389 26.2065 32.1473 26.3203 31.761 26.7166C30.9959 27.502 29.1899 29.3437 28.0847 30.429C25.8862 28.8858 23.5371 26.857 21.2361 24.5106C21.2299 24.5044 21.2237 24.4982 21.2175 24.492C18.9062 22.2254 16.9513 19.9588 15.3954 17.7418C16.7287 16.3957 19.0768 14.0782 19.1061 14.0494C19.4972 13.6634 19.6087 13.0755 19.3854 12.5729L14.2833 1.08109C14.0205 0.488732 13.3662 0.174321 12.7394 0.339783L3.87571 2.67516C1.18567 3.35971 -0.127358 6.17634 0.70339 8.87257C3.26718 17.1952 6.95756 24.2904 14.1622 31.5934C14.1646 31.5958 14.167 31.5982 14.1694 31.6007L14.2155 31.6467C14.2179 31.6492 14.2203 31.6516 14.2227 31.654C23.7421 41.0457 32.3299 43.6917 36.9436 45.1131C39.613 45.9353 42.4489 44.6553 43.141 41.9425L45.4994 33.1046C45.6666 32.4771 45.3532 31.8212 44.7602 31.5573ZM40.5861 41.269C40.5848 41.2745 40.5834 41.28 40.582 41.2855C40.2707 42.5156 38.9491 42.9666 37.7214 42.5882C33.0155 41.1383 25.1397 38.7121 16.0817 29.7771L16.0394 29.7345C7.10376 20.6757 4.4863 12.1787 3.22797 8.0948C2.84957 6.86571 3.30158 5.54511 4.53068 5.23448C4.5348 5.23345 4.53893 5.23242 4.54306 5.23104L12.3253 3.18118L16.6008 12.811C15.5072 13.8932 13.3665 16.017 12.736 16.6837C12.3149 17.1288 12.2554 17.8054 12.5925 18.3176C14.3352 20.9657 16.6118 23.6747 19.3586 26.3692C22.092 29.1555 24.9076 31.5264 27.5009 33.2253C28.0014 33.5532 28.6598 33.5036 29.1057 33.1049C29.8023 32.4816 31.9271 30.3237 33.0097 29.2185L42.656 33.5126L40.5861 41.269Z" fill="#203F7E"/>
<path d="M23.0006 2.91434C33.9744 2.91434 42.9024 11.8028 42.9024 22.7281C42.9024 23.4574 43.4938 24.049 44.223 24.049C44.9526 24.049 45.544 23.4574 45.544 22.7281C45.544 10.346 35.4312 0.272461 23.0006 0.272461C22.271 0.272461 21.6797 0.863788 21.6797 1.5934C21.6797 2.32301 22.271 2.91434 23.0006 2.91434Z" fill="#203F7E"/>
<path d="M23.0006 8.19852C31.0123 8.19852 37.5306 14.7165 37.5306 22.7285C37.5306 23.4578 38.1219 24.0494 38.8516 24.0494C39.5808 24.0494 40.1725 23.4578 40.1725 22.7285C40.1725 13.2597 32.4691 5.55664 23.0006 5.55664C22.271 5.55664 21.6797 6.14797 21.6797 6.87758C21.6797 7.60685 22.271 8.19852 23.0006 8.19852Z" fill="#203F7E"/>
<path d="M23.0006 13.4817C28.099 13.4817 32.2469 17.6296 32.2469 22.7283C32.2469 23.4576 32.8382 24.0492 33.5678 24.0492C34.2974 24.0492 34.8887 23.4576 34.8887 22.7283C34.8887 16.1731 29.5558 10.8398 23.0006 10.8398C22.271 10.8398 21.6797 11.4315 21.6797 12.1608C21.6797 12.8904 22.271 13.4817 23.0006 13.4817Z" fill="#203F7E"/>
</g>
<defs>
<clipPath id="clip0_2104_37165">
<rect width="45.0881" height="45" fill="white" transform="translate(0.456055 0.228516)"/>
</clipPath>
</defs>
</svg>
