<svg width="20" height="20" viewBox="0 0 20 20" fill="none" xmlns="http://www.w3.org/2000/svg">
<g clip-path="url(#clip0_2197_1491)">
<path d="M16.0478 7.0537L18.0349 4.2432C18.572 3.48402 18.9915 2.46582 18.9716 1.96909C18.9514 1.47194 18.5316 1.05328 18.033 1.03239C17.5347 1.01218 16.5154 1.43119 15.7563 1.96833L12.9454 3.95608L5.09729 0.206956C4.25853 -0.1937 3.15511 0.0137062 2.63329 0.671593C2.11148 1.32948 2.27181 2.33985 2.99141 2.92929L9.26508 8.06813L4.57479 13.2646L2.36232 12.5966C1.47235 12.327 0.475456 12.3682 0.136789 12.687C-0.202223 13.0062 0.110605 13.737 0.835428 14.3197L2.84304 15.9338C2.84304 15.9338 2.76751 16.2847 2.6737 16.718C2.58024 17.1508 2.85465 17.4244 3.28713 17.3287L4.06981 17.1549L5.68275 19.1618C6.26586 19.8865 6.99701 20.1998 7.31623 19.8615C7.6351 19.5232 7.6762 18.5274 7.40667 17.6371L6.73827 15.4239L11.9339 10.7336L17.0735 17.0077C17.6626 17.7272 18.6733 17.8876 19.3312 17.3654C19.9887 16.8436 20.1969 15.7398 19.7959 14.9007L16.0478 7.0537Z" fill="#203F7E"/>
</g>
<defs>
<clipPath id="clip0_2197_1491">
<rect width="20" height="20" fill="white"/>
</clipPath>
</defs>
</svg>
