<svg width="45" height="45" viewBox="0 0 45 45" fill="none" xmlns="http://www.w3.org/2000/svg">
<g opacity="0.8" clip-path="url(#clip0_1767_2467)">
<path d="M22.5273 0.864258C10.3961 0.864258 0.527344 10.7331 0.527344 22.8643C0.527344 34.9955 10.3961 44.8643 22.5273 44.8643C34.6585 44.8643 44.5273 34.9955 44.5273 22.8643C44.5273 10.7331 34.6585 0.864258 22.5273 0.864258ZM29.3235 24.1605L20.1568 33.3271C19.7993 33.6846 19.33 33.8643 18.8606 33.8643C18.3913 33.8643 17.922 33.6846 17.5645 33.3271C16.8476 32.6103 16.8476 31.4516 17.5645 30.7348L25.435 22.8643L17.5645 14.9938C16.8477 14.277 16.8477 13.1183 17.5645 12.4015C18.2813 11.6846 19.44 11.6846 20.1568 12.4015L29.3235 21.5681C30.0403 22.285 30.0403 23.4436 29.3235 24.1605Z" fill="#203F7E"/>
</g>
<defs>
<clipPath id="clip0_1767_2467">
<rect width="44" height="44" fill="white" transform="translate(0.527344 0.864258)"/>
</clipPath>
</defs>
</svg>
