<svg width="24" height="25" viewBox="0 0 24 25" fill="none" xmlns="http://www.w3.org/2000/svg">
<path d="M23.4977 11.2958C23.4973 11.2954 23.4968 11.2949 23.4963 11.2944L14.9104 2.7085C14.2368 2.04089 13.1496 2.04572 12.482 2.71929C12.4292 2.77252 12.38 2.82914 12.3346 2.88881C11.8532 3.60686 11.9583 4.56714 12.5836 5.16408L17.3231 9.92069C17.575 10.1729 17.8647 10.3844 18.1817 10.5475L18.7054 10.8222H1.83404C0.970129 10.7859 0.205444 11.3767 0.022403 12.2217C-0.129407 13.1579 0.506381 14.0399 1.44257 14.1917C1.54077 14.2076 1.64015 14.2149 1.73959 14.2137H18.6711L18.3019 14.3854C17.9416 14.5536 17.6134 14.7831 17.3316 15.0637L12.5836 19.8117C11.9583 20.4086 11.8532 21.3689 12.3346 22.087C12.8949 22.8521 13.9694 23.0183 14.7346 22.458C14.7964 22.4127 14.8552 22.3633 14.9104 22.3102L23.4963 13.7243C24.1673 13.054 24.1679 11.9668 23.4977 11.2958Z" fill="white"/>
</svg>
