<svg width="46" height="46" viewBox="0 0 46 46" fill="none" xmlns="http://www.w3.org/2000/svg">
<g clip-path="url(#clip0_2102_36096)">
<path d="M32 -0.0214844H14C11.3816 -0.0214844 9.25 2.11008 9.25 4.72852V40.7285C9.25 43.3489 11.3816 45.4785 14 45.4785H32C34.6203 45.4785 36.75 43.3488 36.75 40.7285V4.72852C36.75 2.11015 34.6204 -0.0214844 32 -0.0214844ZM34.45 40.7285C34.45 42.079 33.3505 43.1785 32 43.1785H14C12.6495 43.1785 11.55 42.079 11.55 40.7285V4.72852C11.55 3.37798 12.6495 2.27852 14 2.27852H32C33.3505 2.27852 34.45 3.37798 34.45 4.72852V40.7285Z" fill="#203F7E" stroke="#203F7E" stroke-width="0.5"/>
<path d="M21.1998 4.32812H24.7998C25.0204 4.32812 25.1998 4.50751 25.1998 4.72813C25.1998 4.94874 25.0204 5.12813 24.7998 5.12813H21.1998C20.9792 5.12813 20.7998 4.94874 20.7998 4.72813C20.7998 4.50748 20.9791 4.32812 21.1998 4.32812Z" fill="#203F7E" stroke="#203F7E"/>
<path d="M22.6001 40.7281C22.6001 40.5075 22.7795 40.3281 23.0001 40.3281C23.2207 40.3281 23.4001 40.5075 23.4001 40.7281C23.4001 40.9487 23.2207 41.1281 23.0001 41.1281C22.7795 41.1281 22.6001 40.9487 22.6001 40.7281Z" fill="#203F7E" stroke="#203F7E"/>
<path d="M35.6 7.17871H10.4C9.76507 7.17871 9.25 7.6939 9.25 8.32871C9.25 8.96363 9.76508 9.47871 10.4 9.47871H35.6C36.2348 9.47871 36.75 8.96354 36.75 8.32871C36.75 7.69388 36.2348 7.17871 35.6 7.17871Z" fill="#203F7E" stroke="#203F7E" stroke-width="0.5"/>
<path d="M35.6 35.9785H10.4C9.76507 35.9785 9.25 36.4937 9.25 37.1285C9.25 37.7633 9.76507 38.2785 10.4 38.2785H35.6C36.2348 38.2785 36.75 37.7633 36.75 37.1285C36.75 36.4937 36.2348 35.9785 35.6 35.9785Z" fill="#203F7E" stroke="#203F7E" stroke-width="0.5"/>
</g>
<defs>
<clipPath id="clip0_2102_36096">
<rect width="45" height="45" fill="white" transform="translate(0.5 0.228516)"/>
</clipPath>
</defs>
</svg>
