<svg width="37" height="36" viewBox="0 0 37 36" fill="none" xmlns="http://www.w3.org/2000/svg">
<g clip-path="url(#clip0_2152_4500)">
<path d="M18.1634 35.9996C28.1044 35.9996 36.1632 27.9408 36.1632 17.9998C36.1632 8.05878 28.1044 0 18.1634 0C8.22235 0 0.163574 8.05878 0.163574 17.9998C0.163574 27.9408 8.22235 35.9996 18.1634 35.9996Z" fill="#41B4E6"/>
<path d="M36.1635 18.0003C36.1635 17.5617 36.147 17.1271 36.1162 16.6963L28.6561 9.23633L7.6709 17.491L15.7 25.5201L15.8053 25.8992L15.9416 25.7617L15.9422 25.7623L15.8053 25.8992L24.6869 34.7809C31.4032 32.1681 36.1635 25.6405 36.1635 18.0003Z" fill="#0091C8"/>
<path d="M16.4155 20.6227L24.55 26.7643L28.6562 9.23633L7.6709 17.4909L14.0565 19.606L25.7103 11.789L16.4155 20.6227Z" fill="white"/>
<path d="M14.0566 19.6061L15.8055 25.8994L16.4156 20.6228L25.7104 11.7891L14.0566 19.6061Z" fill="#D2D2D7"/>
<path d="M19.059 22.6191L15.8052 25.8996L16.4153 20.623L19.059 22.6191Z" fill="#B9B9BE"/>
</g>
<defs>
<clipPath id="clip0_2152_4500">
<rect width="36" height="36" fill="white" transform="translate(0.163574)"/>
</clipPath>
</defs>
</svg>
