<svg width="51" height="17" viewBox="0 0 51 17" fill="none" xmlns="http://www.w3.org/2000/svg">
<path d="M20.1591 1.07227L17.6211 15.9661H21.6802L24.2203 1.07227H20.1591Z" fill="white"/>
<path d="M14.2168 1.09102L10.2412 11.2482L9.81737 9.71455C9.03332 7.86665 6.80749 5.21277 4.19434 3.54027L7.82958 15.9609L12.1246 15.9535L18.5171 1.08789L14.2168 1.09102Z" fill="white"/>
<path d="M8.27762 2.15141C8.04167 1.24417 7.35785 0.973771 6.50907 0.941406H0.215775L0.163574 1.23791C5.06103 2.42599 8.30163 5.28867 9.64632 8.73077L8.27762 2.15141Z" fill="white"/>
<path d="M32.4451 3.92365C33.773 3.90277 34.7356 4.193 35.4831 4.49368L35.8496 4.66594L36.3987 1.43786C35.5948 1.13614 34.3347 0.8125 32.7624 0.8125C28.7514 0.8125 25.9242 2.83266 25.9023 5.7277C25.8762 7.86687 27.9161 9.06122 29.4571 9.77428C31.0388 10.5051 31.5691 10.9697 31.5618 11.6222C31.5493 12.6192 30.3007 13.0765 29.1345 13.0765C27.509 13.0765 26.6456 12.852 25.3124 12.2966L24.7893 12.0586L24.2183 15.3921C25.1683 15.8087 26.9212 16.1668 28.7409 16.1855C33.0078 16.1855 35.7807 14.1894 35.8099 11.096C35.8277 9.40366 34.745 8.11222 32.3991 7.05255C30.9793 6.36141 30.1107 5.90205 30.119 5.20465C30.119 4.58555 30.8561 3.92365 32.4451 3.92365Z" fill="white"/>
<path d="M46.8182 1.08789H43.682C42.708 1.08789 41.9834 1.35307 41.5554 2.324L35.5283 15.9734H39.791C39.791 15.9734 40.4863 14.138 40.644 13.7361C41.1106 13.7361 45.2522 13.7423 45.8421 13.7423C45.9632 14.2623 46.337 15.9734 46.337 15.9734H50.1027L46.8182 1.08789ZM41.8122 10.6876C42.1463 9.83252 43.4294 6.5251 43.4294 6.5251C43.4075 6.56581 43.7603 5.66379 43.9702 5.10315L44.2437 6.38729C44.2437 6.38729 45.0215 9.94318 45.1844 10.6876H41.8122Z" fill="white"/>
</svg>
